<svg xmlns="http://www.w3.org/2000/svg" width="46" height="46" viewBox="0 0 46 46">
  <g id="approved_campaign_list" transform="translate(891 -321)">
    <g id="Group_8081" data-name="Group 8081" transform="translate(-4309 -411)">
      <rect id="Rectangle_655" data-name="Rectangle 655" width="46" height="46" transform="translate(3418 732)" fill="none"/>
    </g>
    <g id="noun_List_1340265" transform="translate(-884 328)">
      <path id="Path_2265" data-name="Path 2265" d="M-.085,0,0,31.841H13.282A13.286,13.286,0,0,1,23.244,7.977V0Zm8.7,10.985H3.6L3.51,8.438H8.618ZM19.463,6.036H3.6V3.489H19.463Z" fill="#1d87cd"/>
      <path id="Subtraction_3" data-name="Subtraction 3" d="M894.746-306.508A10.758,10.758,0,0,1,884-317.254,10.758,10.758,0,0,1,894.746-328a11.521,11.521,0,0,1,2.15.207v.009a10.78,10.78,0,0,1,8.6,10.53,10.781,10.781,0,0,1-8.6,10.53v.009A11.57,11.57,0,0,1,894.746-306.508Zm-1.561-4.115h0l-.66.669,1.366,1.366.669.669.659-.669,3.241-3.24-.66-.669-3.24,3.249-1.375-1.375Zm-3.68-8.3a.32.32,0,0,0-.324.323v1.209a.32.32,0,0,0,.324.323h.281v.365a.97.97,0,0,0,.969.969h.239l1.11,3.683.169-.042.562-.127.169-.042-.45-3.471h.886v-.407a8.667,8.667,0,0,1,4.483,1.981.425.425,0,0,0,.427.4l.05,0a.442.442,0,0,0,.379-.45V-316.7a1.465,1.465,0,0,0,.928-1.349,1.381,1.381,0,0,0-.914-1.321v-2.473a.441.441,0,0,0-.38-.45.322.322,0,0,0-.05,0,.421.421,0,0,0-.427.4,8.678,8.678,0,0,1-4.483,1.981v-.408H890.77a.971.971,0,0,0-.97.97v.436Zm11.254,1.742a.384.384,0,0,0-.363.267.37.37,0,0,0,.014.287.368.368,0,0,0,.211.191l1.49.59a.4.4,0,0,0,.143.028.385.385,0,0,0,.363-.267.4.4,0,0,0-.225-.478l-1.49-.59A.373.373,0,0,0,900.759-317.182Zm.213-1.321a.38.38,0,0,0-.379.38v.014a.379.379,0,0,0,.379.379h1.574a.38.38,0,0,0,.38-.379.383.383,0,0,0-.38-.394Zm1.282-1.912a.384.384,0,0,0-.144.029l-1.49.59a.4.4,0,0,0-.225.478.384.384,0,0,0,.362.266.4.4,0,0,0,.144-.028l1.49-.59a.394.394,0,0,0,.225-.478A.384.384,0,0,0,902.255-320.415Zm-9.827,3.655h-1.615v-2.558h1.615v2.556l0,0Z" transform="translate(-873.493 338.508)" fill="#1d87cd"/>
    </g>
  </g>
</svg>
