<svg xmlns="http://www.w3.org/2000/svg" width="15.795" height="16.153" viewBox="0 0 15.795 16.153"><defs><style>.a{fill:#3b3b3b;}</style></defs><g transform="translate(-5.411)"><g transform="translate(5.411)"><path class="a" d="M119.048,258.608a.366.366,0,0,0-.367-.366H117.4a.366.366,0,0,0-.366.366v1.279a.367.367,0,0,0,.366.367h1.279a.367.367,0,0,0,.367-.367v-1.279Z" transform="translate(-113.341 -249.697)"/><path class="a" d="M215.682,258.608a.366.366,0,0,0-.366-.366h-1.28a.366.366,0,0,0-.366.366v1.279a.367.367,0,0,0,.366.367h1.28a.366.366,0,0,0,.366-.367Z" transform="translate(-206.779 -249.697)"/><path class="a" d="M312.311,258.608a.366.366,0,0,0-.366-.366h-1.279a.366.366,0,0,0-.367.366v1.279a.367.367,0,0,0,.367.367h1.279a.366.366,0,0,0,.366-.367Z" transform="translate(-300.209 -249.697)"/><path class="a" d="M119.048,355.241a.366.366,0,0,0-.367-.366H117.4a.366.366,0,0,0-.366.366v1.279a.366.366,0,0,0,.366.366h1.279a.366.366,0,0,0,.367-.366v-1.279Z" transform="translate(-113.341 -343.132)"/><path class="a" d="M215.682,355.241a.366.366,0,0,0-.366-.366h-1.28a.366.366,0,0,0-.366.366v1.279a.366.366,0,0,0,.366.366h1.28a.366.366,0,0,0,.366-.366Z" transform="translate(-206.779 -343.132)"/><path class="a" d="M312.311,355.241a.366.366,0,0,0-.366-.366h-1.28a.366.366,0,0,0-.367.366v1.279a.366.366,0,0,0,.367.366h1.28a.366.366,0,0,0,.366-.366v-1.279Z" transform="translate(-300.209 -343.132)"/><path class="a" d="M19.8,54.149V56.1A1.6,1.6,0,0,1,18.2,57.7H17.191A1.6,1.6,0,0,1,15.582,56.1V54.142H11.034V56.1A1.6,1.6,0,0,1,9.426,57.7H8.416a1.6,1.6,0,0,1-1.6-1.595V54.149A1.454,1.454,0,0,0,5.411,55.6V67.047A1.455,1.455,0,0,0,6.859,68.5h12.9a1.457,1.457,0,0,0,1.448-1.456V55.6A1.454,1.454,0,0,0,19.8,54.149Zm-.469,12.185a.626.626,0,0,1-.626.626H7.884a.626.626,0,0,1-.626-.626V60.419a.626.626,0,0,1,.626-.626H18.705a.626.626,0,0,1,.626.626v5.915Z" transform="translate(-5.411 -52.35)"/><path class="a" d="M80.1,4.3h1a.548.548,0,0,0,.549-.548V.548A.548.548,0,0,0,81.1,0h-1a.548.548,0,0,0-.549.548v3.2A.548.548,0,0,0,80.1,4.3Z" transform="translate(-77.097)"/><path class="a" d="M345.007,4.3h1a.548.548,0,0,0,.548-.548V.548A.548.548,0,0,0,346,0h-1a.548.548,0,0,0-.549.548v3.2A.548.548,0,0,0,345.007,4.3Z" transform="translate(-333.239)"/></g></g></svg>