<svg xmlns="http://www.w3.org/2000/svg" width="46" height="46" viewBox="0 0 46 46">
  <g id="campaign_list" transform="translate(891 -255)">
    <g id="Group_8080" data-name="Group 8080" transform="translate(-4309 -477)">
      <rect id="Rectangle_655" data-name="Rectangle 655" width="46" height="46" transform="translate(3418 732)" fill="none"/>
    </g>
    <g id="noun_List_1340265" transform="translate(-884 262)">
      <path id="Path_2265" data-name="Path 2265" d="M-.085,0,0,31.841H13.282A13.286,13.286,0,0,1,23.244,7.977V0Zm8.7,10.985H3.6L3.51,8.438H8.618ZM19.463,6.036H3.6V3.489H19.463Z" fill="#1d87cd"/>
      <path id="Subtraction_1" data-name="Subtraction 1" d="M10.746,21.492A10.746,10.746,0,1,1,10.746,0,11.56,11.56,0,0,1,12.9.207V.216a10.747,10.747,0,0,1,0,21.06v.009A11.566,11.566,0,0,1,10.746,21.492ZM5.505,9.075a.32.32,0,0,0-.324.323v1.209a.32.32,0,0,0,.324.323h.281V11.3a.97.97,0,0,0,.969.969h.239L8.1,15.947l.169-.042.562-.127L9,15.736l-.45-3.471H9.44v-.407a8.682,8.682,0,0,1,4.483,1.981.424.424,0,0,0,.427.4l.051,0a.441.441,0,0,0,.379-.45V11.3a1.465,1.465,0,0,0,.928-1.349,1.382,1.382,0,0,0-.914-1.321V6.152a.441.441,0,0,0-.38-.45l-.051,0a.421.421,0,0,0-.427.4A8.672,8.672,0,0,1,9.453,8.077V7.669H6.77a.971.971,0,0,0-.97.97v.436Zm11.254,1.742a.385.385,0,0,0-.363.267.37.37,0,0,0,.225.478l1.49.59a.38.38,0,0,0,.506-.239.4.4,0,0,0-.225-.478l-1.49-.59A.386.386,0,0,0,16.759,10.817ZM16.972,9.5a.38.38,0,0,0-.379.38V9.89a.379.379,0,0,0,.379.379h1.574a.387.387,0,0,0,0-.773Zm1.283-1.911a.385.385,0,0,0-.144.028l-1.49.59a.4.4,0,0,0-.225.478.383.383,0,0,0,.362.266A.391.391,0,0,0,16.9,8.92l1.49-.59a.394.394,0,0,0,.225-.478A.384.384,0,0,0,18.255,7.585ZM8.427,11.239H6.812V8.682H8.427v2.557Z" transform="translate(10.508 10.507)" fill="#1d87cd"/>
    </g>
  </g>
</svg>
