<svg xmlns="http://www.w3.org/2000/svg" width="29.634" height="26" viewBox="0 0 29.634 26"><defs><style>.a{fill:#095dab;}</style></defs><g transform="translate(314.456 -50.596)"><path class="a" d="M20.559,13.709a.947.947,0,0,1,.051-1.339L23.4,9.781a.95.95,0,0,1,1.288,1.39L21.9,13.759A.95.95,0,0,1,20.559,13.709Zm.27-6.992a.935.935,0,0,0-1.306.416l-1.68,3.526a.936.936,0,1,0,1.689.806l1.683-3.526a.935.935,0,0,0-.386-1.222Zm6.716,7.249a.935.935,0,0,0-1.2-.476L22.716,14.9a.935.935,0,1,0,.677,1.743l3.649-1.411a.935.935,0,0,0,.5-1.267ZM5.695,32.329a1.006,1.006,0,0,0,.054-1.423L5.4,30.531,8.577,29.15l.917.992a4.248,4.248,0,0,0,5.326.734,2.447,2.447,0,0,1-.045-.273,2.474,2.474,0,0,1,0-.452,2.444,2.444,0,0,1-.758-1.174,2.226,2.226,0,0,1-3.043-.2l-.437-.488,2.7-1.177A2.366,2.366,0,0,1,13.07,26q-.081-.072-.159-.15a2.453,2.453,0,0,1-.7-1.8,2.513,2.513,0,0,1,2.516-2.4h3.834l-.4-2.954a1.363,1.363,0,0,1,0-.231,2.217,2.217,0,0,1,2.1-2.142L12.585,8.044A1.008,1.008,0,0,0,11.1,9.413l.584.629L2.514,27.416l-.225-.243A1.007,1.007,0,1,0,.812,28.542l3.463,3.732a1.007,1.007,0,0,0,1.42.054ZM15.281,28.4a1.135,1.135,0,0,0,1.141.995h.261a1.108,1.108,0,0,0-.554,1.075,1.132,1.132,0,0,0,1.141.995h.554l6.638.078a.347.347,0,0,0,.353-.347V24.477h0a.356.356,0,0,0-.234-.344l-.77-.27-2.591-5.512a.866.866,0,0,0-1.7.168l.6,4.511H14.724a1.141,1.141,0,0,0-1.138,1.06,1.108,1.108,0,0,0,1.108,1.144h.3a1.108,1.108,0,0,0-.554,1.075,1.135,1.135,0,0,0,1.141.995h.261a1.108,1.108,0,0,0-.557,1.087Zm14.9-3.969v6.554a.569.569,0,0,1-.569.569H26.376a.569.569,0,0,1-.569-.569V24.427a.569.569,0,0,1,.569-.569h3.232a.569.569,0,0,1,.569.569Zm-1.624,5.656a.506.506,0,1,0-.506.506.506.506,0,0,0,.506-.506Z" transform="translate(-315 44)"/></g></svg>