<svg xmlns="http://www.w3.org/2000/svg" width="54" height="54" viewBox="0 0 54 54">
  <g id="campaign_management" transform="translate(892 -178)">
    <rect id="Rectangle_660" data-name="Rectangle 660" width="54" height="54" transform="translate(-892 178)" fill="none"/>
    <g id="noun_Social_Media_416705" data-name="noun_Social Media_416705" transform="translate(-887.1 176.42)">
      <path id="Path_2267" data-name="Path 2267" d="M42.222,26.118a1.131,1.131,0,0,1-1.135,1.135H36.378a1.131,1.131,0,0,1-1.135-1.135v-.042a1.131,1.131,0,0,1,1.135-1.135h4.709a1.141,1.141,0,0,1,1.135,1.177Zm-2.439-6.812-4.457,1.766a1.181,1.181,0,0,0-.673,1.43,1.138,1.138,0,0,0,1.514.715l4.457-1.766a1.181,1.181,0,0,0,.673-1.43A1.138,1.138,0,0,0,39.783,19.307ZM35.326,31.122l4.457,1.766a1.138,1.138,0,0,0,1.514-.715,1.2,1.2,0,0,0-.673-1.43l-4.457-1.766a1.138,1.138,0,0,0-1.514.715A1.107,1.107,0,0,0,35.326,31.122Zm-2.733-4.835a4.36,4.36,0,0,1-2.775,4.037v7.442a1.323,1.323,0,0,1-1.135,1.346,1.268,1.268,0,0,1-1.43-1.177C23.175,34.065,17.372,32.594,13.84,32v1.219H11.191L12.537,43.61l-.5.126-1.682.378-.5.126L6.524,33.224H5.809a2.907,2.907,0,0,1-2.9-2.9V29.23H2.067a.952.952,0,0,1-.967-.967V24.647a.952.952,0,0,1,.967-.967H2.95v-1.3a2.907,2.907,0,0,1,2.9-2.9h8.031v1.219c3.532-.589,9.334-2.06,13.413-5.929a1.268,1.268,0,0,1,1.43-1.177,1.323,1.323,0,0,1,1.135,1.346v7.4A4.128,4.128,0,0,1,32.593,26.286ZM10.813,22.5H5.977v7.653h4.835Z" transform="translate(0)" fill="#1d87cd"/>
    </g>
  </g>
</svg>
