<svg xmlns="http://www.w3.org/2000/svg" width="46" height="46" viewBox="0 0 46 46">
  <g id="contact_list" transform="translate(891 -873)">
    <g id="Group_8077" data-name="Group 8077" transform="translate(-4309 141)">
      <rect id="Rectangle_655" data-name="Rectangle 655" width="46" height="46" transform="translate(3418 732)" fill="none"/>
    </g>
    <g id="noun_Phone_Book_668566" data-name="noun_Phone Book_668566" transform="translate(-892.737 872.5)">
      <g id="Group_7940" data-name="Group 7940" transform="translate(9.737 11.845)">
        <path id="Path_2260" data-name="Path 2260" d="M16.181,21.693H10.805a1.068,1.068,0,0,1,0-2.137h5.376a1.068,1.068,0,1,1,0,2.137Z" transform="translate(-9.737 -19.556)" fill="#1d87cd"/>
      </g>
      <g id="Group_7941" data-name="Group 7941" transform="translate(9.737 18.973)">
        <path id="Path_2261" data-name="Path 2261" d="M16.181,40.013H10.805a1.069,1.069,0,0,1,0-2.137h5.376a1.069,1.069,0,1,1,0,2.137Z" transform="translate(-9.737 -37.876)" fill="#1d87cd"/>
      </g>
      <g id="Group_7942" data-name="Group 7942" transform="translate(9.737 25.892)">
        <path id="Path_2262" data-name="Path 2262" d="M16.181,58.331H10.805a1.069,1.069,0,0,1,0-2.138h5.376a1.069,1.069,0,0,1,0,2.138Z" transform="translate(-9.737 -56.193)" fill="#1d87cd"/>
      </g>
      <g id="Group_7943" data-name="Group 7943" transform="translate(9.737 33.02)">
        <path id="Path_2263" data-name="Path 2263" d="M16.181,76.651H10.805a1.069,1.069,0,0,1,0-2.138h5.376a1.069,1.069,0,1,1,0,2.138Z" transform="translate(-9.737 -74.513)" fill="#1d87cd"/>
      </g>
      <path id="Path_2264" data-name="Path 2264" d="M45.468,7.5H21.628a1.334,1.334,0,0,0-1.337,1.329v2.184h2.777a2.142,2.142,0,1,1,0,4.283H20.291v2.614h2.777a2.142,2.142,0,1,1,0,4.284H20.291v2.613h2.777a2.142,2.142,0,1,1,0,4.283H20.291V31.7h2.777a2.142,2.142,0,1,1,0,4.283H20.291v2.185A1.333,1.333,0,0,0,21.628,39.5h23.84a1.333,1.333,0,0,0,1.338-1.328V8.829A1.334,1.334,0,0,0,45.468,7.5Zm-1.75,24.481c-.322.215-.666.428-1.024.634A23.853,23.853,0,0,1,38.745,34.4a.157.157,0,0,1-.1,0c-.476-.2-4.731-2.065-8.059-7.791S27.751,16.28,27.82,15.773a.148.148,0,0,1,.05-.092,23.778,23.778,0,0,1,3.527-2.5c.361-.206.719-.4,1.067-.565a.148.148,0,0,1,.119-.006.137.137,0,0,1,.085.08,23.306,23.306,0,0,1,1.509,5.332.147.147,0,0,1-.079.156l-2.307,1.16a8.734,8.734,0,0,0,1.274,5.844A8.832,8.832,0,0,0,37.522,29.2l2.165-1.4a.154.154,0,0,1,.176.008,23.632,23.632,0,0,1,3.892,3.965.155.155,0,0,1,.027.115A.148.148,0,0,1,43.717,31.981Z" transform="translate(-6.751 0)" fill="#1d87cd"/>
    </g>
  </g>
</svg>
