<svg xmlns="http://www.w3.org/2000/svg" width="54" height="54" viewBox="0 0 54 54">
  <g id="contact_us" transform="translate(891 -806)">
    <rect id="Rectangle_657" data-name="Rectangle 657" width="54" height="54" transform="translate(-891 806)" fill="none"/>
    <g id="contact" transform="translate(-885 799.3)">
      <g id="Group_7939" data-name="Group 7939" transform="translate(0 13.7)">
        <g id="Group_7938" data-name="Group 7938" transform="translate(0 0)">
          <path id="Path_2258" data-name="Path 2258" d="M32.191,131.257l-7.124-4.75a.734.734,0,0,0-.981.159l-2.074,2.667a2.224,2.224,0,0,1-2.85.587l-.384-.211a25.058,25.058,0,0,1-6.526-5.113,25.027,25.027,0,0,1-5.113-6.526l-.211-.384a2.223,2.223,0,0,1,.587-2.849l2.666-2.075a.733.733,0,0,0,.159-.981l-4.749-7.125a.73.73,0,0,0-.981-.221l-2.981,1.787a2.868,2.868,0,0,0-1.313,1.692c-.979,3.565-.155,9.808,9.326,19.29s15.723,10.308,19.291,9.328a2.868,2.868,0,0,0,1.692-1.313l1.787-2.981A.729.729,0,0,0,32.191,131.257Z" transform="translate(0 -96.849)" fill="#1d87cd"/>
          <path id="Path_2259" data-name="Path 2259" d="M132.814,13.82a.411.411,0,0,0-.295-.12H100.89a.411.411,0,0,0-.415.415V25.1l1.794,2.69a2.248,2.248,0,0,1-.488,3.01L99.116,32.88a.72.72,0,0,0-.195.922l.217.4a19.032,19.032,0,0,0,2.519,3.672h30.861a.412.412,0,0,0,.415-.406V14.115A.41.41,0,0,0,132.814,13.82ZM111.367,27.548v0l-7.733,8.285a.755.755,0,0,1-1.1-1.03l7.733-8.281a.755.755,0,1,1,1.1,1.03Zm5.338-.595a2.5,2.5,0,0,1-1.51-.5l-12.617-9.567a.756.756,0,0,1,.916-1.2l12.611,9.567a1.018,1.018,0,0,0,1.2,0l12.615-9.567a.755.755,0,1,1,.913,1.2l-12.617,9.567A2.5,2.5,0,0,1,116.7,26.953Zm14.185,8.913a.755.755,0,0,1-1.067-.037l-7.732-8.285a.755.755,0,0,1,1.106-1.026l7.73,8.281A.755.755,0,0,1,130.89,35.866Z" transform="translate(-90.672 -13.7)" fill="#1d87cd"/>
        </g>
      </g>
    </g>
  </g>
</svg>
