<svg xmlns="http://www.w3.org/2000/svg" width="37.23" height="32.485" viewBox="0 0 37.23 32.485">
  <g id="coupon_list" transform="translate(885.646 -1018)">
    <g id="voucher" transform="translate(-937.339 944.466) rotate(-30)">
      <g id="Group_7" data-name="Group 7" transform="translate(0 103.385)">
        <path id="Path_309" data-name="Path 309" d="M31.077,110.139a.922.922,0,0,0,.923-.921v-4.912a.922.922,0,0,0-.923-.921H10.769v4.605a.923.923,0,0,1-1.846,0v-4.605h-8a.922.922,0,0,0-.923.921v4.912a.922.922,0,0,0,.923.921,2.763,2.763,0,1,1,0,5.526.922.922,0,0,0-.923.921V121.5a.922.922,0,0,0,.923.921h8v-4.605a.923.923,0,0,1,1.846,0v4.605H31.077A.922.922,0,0,0,32,121.5v-4.912a.922.922,0,0,0-.923-.921,2.763,2.763,0,1,1,0-5.526Zm-20.308,3.991a.923.923,0,0,1-1.846,0v-2.456a.923.923,0,0,1,1.846,0Z" transform="translate(0 -103.385)" fill="#1d87cd"/>
      </g>
    </g>
  </g>
</svg>
