<svg xmlns="http://www.w3.org/2000/svg" width="69.451" height="54.995" viewBox="0 0 69.451 54.995">
  <g id="customer-service" transform="translate(-1.954 -9.182)">
    <path id="Path_1119" data-name="Path 1119" d="M119.126,91.047h-3.419a23.932,23.932,0,1,0-47.864,0H64.424a27.351,27.351,0,0,1,54.7,0Z" transform="translate(-55.144 -54.563)" fill="#0255a8"/>
    <g id="Group_527" data-name="Group 527" transform="translate(15.776 15.58)">
      <circle id="Ellipse_6" data-name="Ellipse 6" cx="20.904" cy="20.904" r="20.904" fill="#4f5565"/>
      <circle id="Ellipse_7" data-name="Ellipse 7" cx="20.904" cy="20.904" r="20.904" fill="#4f5565"/>
      <path id="Path_1120" data-name="Path 1120" d="M165.61,154.642a17.765,17.765,0,0,0,9.133,11.868v-4.542A16.154,16.154,0,0,0,158.577,145.8h0a16.154,16.154,0,0,0-16.166,16.166v5.275C161.8,164.7,165.61,154.642,165.61,154.642Z" transform="translate(-137.673 -140.381)" fill="#4f5565"/>
    </g>
    <path id="Path_1121" data-name="Path 1121" d="M165.319,207.174s-3.81,10.061-23.248,12.65v5.519a16.154,16.154,0,0,0,16.166,16.166h0A16.154,16.154,0,0,0,174.4,225.343v-6.3A17.791,17.791,0,0,1,165.319,207.174Z" transform="translate(-121.607 -177.332)" fill="#f6ceb0"/>
    <path id="Path_1122" data-name="Path 1122" d="M55.153,230.23a3.606,3.606,0,0,0-3.614,3.614v10.794a3.614,3.614,0,0,0,7.228,0V233.844A3.575,3.575,0,0,0,55.153,230.23Z" transform="translate(-44.115 -197.067)" fill="#0255a8"/>
    <path id="Path_1123" data-name="Path 1123" d="M18.936,255.322a5.373,5.373,0,1,0,0,10.745h.1V255.322Z" transform="translate(-11.609 -218.545)" fill="#6eb1e1"/>
    <path id="Path_1124" data-name="Path 1124" d="M411.174,248.253a3.606,3.606,0,0,0,3.614-3.614V233.845a3.614,3.614,0,0,0-7.228,0v10.794A3.575,3.575,0,0,0,411.174,248.253Z" transform="translate(-348.853 -197.068)" fill="#0255a8"/>
    <path id="Path_1125" data-name="Path 1125" d="M457.847,266.067a5.373,5.373,0,1,0,0-10.745h-.1v10.745Z" transform="translate(-391.813 -218.545)" fill="#6eb1e1"/>
  </g>
</svg>
