<svg xmlns="http://www.w3.org/2000/svg" width="24" height="24" viewBox="0 0 24 24"><defs><style>.a{opacity:0.8;}.b{fill:#757575;}</style></defs><g class="a" transform="translate(0 0)"><path class="b" d="M20.489,3.511a12.006,12.006,0,1,0,0,16.978A12.019,12.019,0,0,0,20.489,3.511ZM16.734,16.734a.923.923,0,0,1-1.306,0L12,13.306,8.408,16.9A.923.923,0,0,1,7.1,15.591L10.694,12,7.266,8.571A.923.923,0,1,1,8.571,7.266L12,10.694l3.265-3.265a.923.923,0,0,1,1.306,1.306L13.306,12l3.428,3.428A.923.923,0,0,1,16.734,16.734Z" transform="translate(0 0)"/></g></svg>