<svg xmlns="http://www.w3.org/2000/svg" width="26.633" height="29.28" viewBox="0 0 26.633 29.28"><defs><style>.a{fill:#fff;}</style></defs><g transform="translate(-242.238 -240.87)"><g transform="translate(242.238 240.87)"><path class="a" d="M154.349,49.5l-2.781-1.477a1.289,1.289,0,0,0-1.211,0l-2.78,1.477a.978.978,0,0,1-.919,0l-2.78-1.477a1.289,1.289,0,0,0-1.211,0L139.887,49.5a.979.979,0,0,1-.912,0l-2.69-1.4V68.563H150.3a.7.7,0,0,1,.7.7v4.4a3.476,3.476,0,1,0,6.952,0V48.1l-2.689,1.4A.979.979,0,0,1,154.349,49.5Zm-13.92,4.66h7.107a.7.7,0,0,1,0,1.407h-7.107a.7.7,0,0,1,0-1.407Zm12.715,10.9H140.429a.7.7,0,0,1,0-1.407h12.715a.7.7,0,0,1,0,1.407Zm0-4.924H140.429a.7.7,0,0,1,0-1.407h12.715a.7.7,0,0,1,0,1.407Z" transform="translate(-131.317 -47.87)"/><path class="a" d="M70.222,369.339H86.691A4.951,4.951,0,0,1,85.2,365.8v-3.747H66.682V365.8A3.544,3.544,0,0,0,70.222,369.339Z" transform="translate(-66.682 -340.059)"/></g></g></svg>