<svg xmlns="http://www.w3.org/2000/svg" width="201.022" height="310.862" viewBox="0 0 201.022 310.862">
  <g id="Group_20" data-name="Group 20" transform="translate(-448.922 -588.902)">
    <rect id="Rectangle_403" data-name="Rectangle 403" width="168.231" height="40.551" transform="translate(448.922 727.05) rotate(-45)" fill="#a4a5a6"/>
    <rect id="Rectangle_404" data-name="Rectangle 404" width="168.231" height="40.551" transform="translate(620.679 755.724) rotate(-135)" fill="#a4a5a6"/>
    <circle id="Ellipse_4" data-name="Ellipse 4" cx="87.3" cy="87.3" r="87.3" transform="translate(462.379 588.902)" fill="#060707"/>
    <g id="Group_17" data-name="Group 17" transform="translate(506.45 642.052)">
      <g id="Group_16" data-name="Group 16">
        <path id="Path_106" data-name="Path 106" d="M494.912,634.776l-9.531,2.181-2.989-12.117,16.559-4.685h11.389V677.1H494.912Z" transform="translate(-482.392 -619.588)" fill="#fff"/>
        <path id="Path_107" data-name="Path 107" d="M503.118,661.749v-.162c0-6.867,3.637-10.985,9.694-13.57-4.36-2.424-7.755-6.141-7.755-12.279v-.163c0-9.046,8.645-15.751,21.325-15.751s21.327,6.705,21.327,15.751v.163c0,6.138-3.393,9.856-7.755,12.279,5.735,2.666,9.694,6.461,9.694,13.487v.163c0,10.1-9.694,16.64-23.265,16.64S503.118,671.6,503.118,661.749Zm31.424-1.537v-.16c0-3.635-3.393-6.139-8.161-6.139s-8.157,2.5-8.157,6.139v.16c0,3.395,2.908,6.382,8.157,6.382S534.542,663.607,534.542,660.213ZM533.329,637.6v-.163c0-3.151-2.664-5.976-6.947-5.976s-6.945,2.747-6.945,5.9v.16c0,3.556,2.747,6.222,6.945,6.222S533.329,641.151,533.329,637.6Z" transform="translate(-467.495 -619.825)" fill="#fff"/>
      </g>
    </g>
    <rect id="Rectangle_405" data-name="Rectangle 405" width="200.529" height="40.551" transform="translate(449.415 726.542)" fill="#fff"/>
    <g id="Group_18" data-name="Group 18" transform="translate(483.834 740.423)">
      <path id="Path_108" data-name="Path 108" d="M469.234,677.2h3.173v11.545H479.6v2.886H469.234Z" transform="translate(-469.234 -676.955)" fill="#060707"/>
      <path id="Path_109" data-name="Path 109" d="M482.124,677.142h2.927l6.184,14.532h-3.319l-1.318-3.236h-6.1l-1.32,3.236h-3.235Zm3.341,8.492-1.918-4.678-1.918,4.678Z" transform="translate(-464.412 -676.997)" fill="#060707"/>
      <path id="Path_110" data-name="Path 110" d="M486.142,677.2h2.927l6.76,8.884V677.2h3.135v14.431h-2.7l-6.988-9.173v9.173h-3.132Z" transform="translate(-457.081 -676.955)" fill="#060707"/>
      <path id="Path_111" data-name="Path 111" d="M495.249,684.56v-.039a7.407,7.407,0,0,1,7.566-7.463,7.913,7.913,0,0,1,5.667,1.978l-2,2.411a5.3,5.3,0,0,0-3.771-1.463,4.333,4.333,0,0,0-4.144,4.493v.043a4.323,4.323,0,0,0,4.371,4.575,5.063,5.063,0,0,0,2.989-.866v-2.061h-3.2v-2.741H509v6.265a9.361,9.361,0,0,1-6.164,2.288A7.221,7.221,0,0,1,495.249,684.56Z" transform="translate(-450.535 -677.058)" fill="#060707"/>
      <path id="Path_112" data-name="Path 112" d="M504.9,685.448V677.2h3.173v8.163c0,2.353,1.176,3.568,3.113,3.568s3.113-1.176,3.113-3.463V677.2h3.175v8.144c0,4.371-2.453,6.514-6.329,6.514S504.9,689.695,504.9,685.448Z" transform="translate(-443.599 -676.955)" fill="#060707"/>
      <path id="Path_113" data-name="Path 113" d="M519.265,677.142h2.927l6.184,14.532h-3.319l-1.32-3.236h-6.1l-1.32,3.236h-3.236Zm3.34,8.492-1.916-4.678-1.918,4.678Z" transform="translate(-437.718 -676.997)" fill="#060707"/>
      <path id="Path_114" data-name="Path 114" d="M522.369,684.56v-.039a7.408,7.408,0,0,1,7.566-7.463,7.913,7.913,0,0,1,5.667,1.978l-2,2.411a5.307,5.307,0,0,0-3.771-1.463,4.333,4.333,0,0,0-4.144,4.493v.043a4.324,4.324,0,0,0,4.371,4.575,5.062,5.062,0,0,0,2.989-.866v-2.061h-3.2v-2.741h6.267v6.265a9.366,9.366,0,0,1-6.165,2.288A7.221,7.221,0,0,1,522.369,684.56Z" transform="translate(-431.042 -677.058)" fill="#060707"/>
      <path id="Path_115" data-name="Path 115" d="M532.15,677.2h10.883v2.826H535.3v2.927h6.8v2.824h-6.8v3.029h7.832v2.826H532.15Z" transform="translate(-424.011 -676.955)" fill="#060707"/>
      <path id="Path_116" data-name="Path 116" d="M539.613,689.614l1.877-2.245a6.621,6.621,0,0,0,4.307,1.751c1.3,0,2.083-.516,2.083-1.361v-.041c0-.8-.495-1.215-2.906-1.836-2.906-.741-4.783-1.545-4.783-4.411v-.041c0-2.618,2.1-4.35,5.052-4.35a8.352,8.352,0,0,1,5.359,1.836l-1.648,2.391a6.785,6.785,0,0,0-3.754-1.421c-1.215,0-1.854.555-1.854,1.258v.04c0,.949.619,1.256,3.114,1.9,2.925.765,4.575,1.815,4.575,4.33v.041c0,2.865-2.186,4.474-5.3,4.474A9.183,9.183,0,0,1,539.613,689.614Z" transform="translate(-418.647 -677.041)" fill="#060707"/>
    </g>
    <path id="Rectangle_406" data-name="Rectangle 406" d="M0,0H200.529a0,0,0,0,1,0,0V128.63a4.04,4.04,0,0,1-4.04,4.04H4.04A4.04,4.04,0,0,1,0,128.63V0A0,0,0,0,1,0,0Z" transform="translate(449.166 767.094)" fill="#fbd109"/>
    <g id="Group_19" data-name="Group 19" transform="translate(502.187 795.053)">
      <path id="Path_117" data-name="Path 117" d="M479.912,718.209v-.047a6.555,6.555,0,0,1,6.6-6.645,6.346,6.346,0,0,1,5.081,2.19l-1.806,1.951a4.272,4.272,0,0,0-3.3-1.59,3.815,3.815,0,0,0-3.658,4.046v.048a3.867,3.867,0,0,0,3.8,4.092,4.468,4.468,0,0,0,3.3-1.59l1.758,1.734a6.665,6.665,0,0,1-11.774-4.19Z" transform="translate(-479.912 -706.918)" fill="#060707"/>
      <path id="Path_118" data-name="Path 118" d="M487.7,718.209v-.047a6.78,6.78,0,0,1,13.556-.048v.048a6.648,6.648,0,0,1-6.815,6.621A6.575,6.575,0,0,1,487.7,718.209Zm10.643,0v-.047a3.931,3.931,0,0,0-3.9-4.094,3.815,3.815,0,0,0-3.826,4.046v.048a3.939,3.939,0,0,0,3.876,4.092A3.833,3.833,0,0,0,498.339,718.209Z" transform="translate(-474.317 -706.918)" fill="#060707"/>
      <path id="Path_119" data-name="Path 119" d="M496.18,711.671h3.13l3.417,9.343,3.444-9.343h3.058l-5.2,12.808h-2.623Z" transform="translate(-468.219 -706.808)" fill="#060707"/>
      <path id="Path_120" data-name="Path 120" d="M504.384,718.187v-.05a6.308,6.308,0,0,1,6.212-6.619c4.046,0,6.091,3.176,6.091,6.836,0,.266-.026.531-.048.82H507.3a3.547,3.547,0,0,0,3.659,3.226,4.613,4.613,0,0,0,3.443-1.518l1.71,1.518a6.429,6.429,0,0,1-5.2,2.384A6.343,6.343,0,0,1,504.384,718.187Zm9.414-.939c-.192-1.879-1.3-3.348-3.224-3.348-1.784,0-3.035,1.372-3.3,3.348Z" transform="translate(-462.322 -706.918)" fill="#060707"/>
      <path id="Path_121" data-name="Path 121" d="M513.246,711.773h2.915v2.865a4.508,4.508,0,0,1,4.5-3.106v3.082h-.168c-2.552,0-4.333,1.662-4.333,5.033v4.84h-2.915Z" transform="translate(-455.952 -706.911)" fill="#060707"/>
      <path id="Path_122" data-name="Path 122" d="M518.37,718.187v-.05a6.308,6.308,0,0,1,6.213-6.619c4.044,0,6.09,3.176,6.09,6.836,0,.266-.024.531-.048.82h-9.34a3.546,3.546,0,0,0,3.657,3.226,4.607,4.607,0,0,0,3.443-1.518L530.1,722.4a6.433,6.433,0,0,1-5.2,2.384A6.344,6.344,0,0,1,518.37,718.187Zm9.416-.939c-.194-1.879-1.3-3.348-3.226-3.348-1.782,0-3.035,1.372-3.3,3.348Z" transform="translate(-452.269 -706.918)" fill="#060707"/>
      <path id="Path_123" data-name="Path 123" d="M526.854,720.086v-.048c0-4.214,2.865-6.6,5.9-6.6a5.262,5.262,0,0,1,4.335,2.238v-6.837H540v17.576h-2.913V724.3a5.087,5.087,0,0,1-4.335,2.384C529.766,726.683,526.854,724.3,526.854,720.086Zm10.28,0v-.048a3.816,3.816,0,0,0-3.683-4.07c-2,0-3.659,1.542-3.659,4.07v.048a3.781,3.781,0,0,0,3.659,4.068A3.83,3.83,0,0,0,537.134,720.086Z" transform="translate(-446.171 -708.842)" fill="#060707"/>
    </g>
  </g>
</svg>
