<svg xmlns="http://www.w3.org/2000/svg" width="60.011" height="60.012" viewBox="0 0 60.011 60.012">
  <g id="launch" transform="translate(-0.012 0)">
    <path id="Path_1103" data-name="Path 1103" d="M24.162,316.356a12.208,12.208,0,0,1-3.2,5.557c-3.658,3.623-17.189,7.94-18.7,8.4a1.756,1.756,0,0,1-1.723-.457,1.8,1.8,0,0,1-.457-1.759c.457-1.477,4.81-14.974,8.432-18.631a12.211,12.211,0,0,1,5.557-3.2l5.029,5.029Z" transform="translate(0 -270.365)" fill="#ffe470"/>
    <g id="Group_526" data-name="Group 526" transform="translate(0.536 39.836)">
      <path id="Path_1104" data-name="Path 1104" d="M23.047,349.172l5.064,5.064a12.207,12.207,0,0,1-3.2,5.557c-3.658,3.623-17.189,7.94-18.7,8.4a1.756,1.756,0,0,1-1.723-.457Z" transform="translate(-4.486 -348.081)" fill="#ffd400"/>
      <path id="Path_1105" data-name="Path 1105" d="M108.011,342.857l-4.959,4.994a1.888,1.888,0,0,1-1.231.492,1.908,1.908,0,0,1-1.266-.492v-.035a1.762,1.762,0,0,1,0-2.462l4.994-4.959a1.659,1.659,0,0,1,2.427,0h.035A1.7,1.7,0,0,1,108.011,342.857Z" transform="translate(-88.853 -339.867)" fill="#ffd400"/>
    </g>
    <path id="Path_1106" data-name="Path 1106" d="M111.786,344.369a1.7,1.7,0,0,1,0,2.462l-4.959,4.994a1.888,1.888,0,0,1-1.231.492,1.908,1.908,0,0,1-1.266-.492v-.035l7.421-7.421Z" transform="translate(-92.091 -304.005)" fill="#fdbf00"/>
    <path id="Path_1107" data-name="Path 1107" d="M46.9,147.547c-12.489,0-16.431,10.559-16.747,10.911a1.759,1.759,0,0,0,1.569,2.552l11.361,1,5.981-14.468H46.9Z" transform="translate(-26.443 -130.253)" fill="#ff7816"/>
    <path id="Path_1108" data-name="Path 1108" d="M241.013,323.876l.852,11.229a1.76,1.76,0,0,0,2.552,1.57c.352-.316,10.911-4.332,10.911-16.747v-2.165Z" transform="translate(-212.753 -280.517)" fill="#ff4b00"/>
    <path id="Path_1109" data-name="Path 1109" d="M117.932,271.7c-1.864.95-3.728,1.864-5.486,2.743a1.771,1.771,0,0,1-2.04-.317l-9.918-9.918a1.77,1.77,0,0,1-.316-2.04c.879-1.759,1.794-3.623,2.743-5.486.563-1.09,4.642,1.336,5.205.211l9.6,9.6C116.6,267.053,119.023,271.133,117.932,271.7Z" transform="translate(-88.249 -226.338)" fill="#ff9f00"/>
    <path id="Path_1110" data-name="Path 1110" d="M159.122,311.751c-1.864.95-3.728,1.864-5.486,2.743a1.771,1.771,0,0,1-2.04-.317l-4.959-4.959,7.491-7.456,4.783,4.783C157.786,307.109,160.212,311.188,159.122,311.751Z" transform="translate(-129.439 -266.393)" fill="#ff7816"/>
    <path id="Path_1111" data-name="Path 1111" d="M168.924,28.515a31.388,31.388,0,0,1-8.863,15.229c-5.17,4.994-13.435,9.355-20.011,12.661l-7.491-7.491-7.526-7.526c3.306-6.577,7.667-14.877,12.661-20.011a31.39,31.39,0,0,1,15.229-8.863l3.552,1.3a11.29,11.29,0,0,0,11.149,11.149Z" transform="translate(-110.366 -11.046)" fill="#ececf1"/>
    <path id="Path_1112" data-name="Path 1112" d="M225.608,97.384a31.388,31.388,0,0,1-8.863,15.229c-5.17,4.994-13.435,9.355-20.011,12.661l-7.491-7.491,27.221-27.256a11.421,11.421,0,0,0,7.843,3.306Z" transform="translate(-167.051 -79.915)" fill="#e2e2e7"/>
    <path id="Path_1113" data-name="Path 1113" d="M267.3,112.663a8.779,8.779,0,0,0-12.415,12.415v.035a8.791,8.791,0,1,0,12.415-12.45Z" transform="translate(-222.743 -97.2)" fill="#76e2f8"/>
    <path id="Path_1114" data-name="Path 1114" d="M378.978,17.469c-.281,0-1.09-.035-1.372-.035a14.773,14.773,0,0,1-14.6-14.6c0-.281-.035-1.09-.035-1.372A54.955,54.955,0,0,1,378.7.06a1.681,1.681,0,0,1,1.688,1.688A56.258,56.258,0,0,1,378.978,17.469Z" transform="translate(-320.42 0)" fill="#ff9f00"/>
    <path id="Path_1115" data-name="Path 1115" d="M230.04,257.944a1.741,1.741,0,1,1,0-2.462A1.7,1.7,0,0,1,230.04,257.944Z" transform="translate(-200.427 -225.071)" fill="#5a5a5a"/>
    <path id="Path_1116" data-name="Path 1116" d="M411.822,21.629c-.281,0-1.09-.035-1.372-.035a14.753,14.753,0,0,1-10.269-4.326L412.737,4.713a1.676,1.676,0,0,1,.492,1.2A56.249,56.249,0,0,1,411.822,21.629Z" transform="translate(-353.264 -4.161)" fill="#ff7816"/>
    <path id="Path_1117" data-name="Path 1117" d="M286.574,144.383a8.809,8.809,0,0,1-12.415,0v-.035l12.415-12.415A8.788,8.788,0,0,1,286.574,144.383Z" transform="translate(-242.014 -116.469)" fill="#25d9f8"/>
    <path id="Path_1118" data-name="Path 1118" d="M234.013,261.917a1.7,1.7,0,0,1-2.462,0l2.462-2.462A1.7,1.7,0,0,1,234.013,261.917Z" transform="translate(-204.4 -229.044)" fill="#444"/>
  </g>
</svg>
