<svg xmlns="http://www.w3.org/2000/svg" width="159.137" height="130.965" viewBox="0 0 159.137 130.965">
  <g id="Logo_clip_art" data-name="Logo clip art" transform="translate(-48.898 -33.815)">
    <path id="Path_1072" data-name="Path 1072" d="M366.02,91.4c2.334,6.948,2.214,18.863-1.934,32.029a100.769,100.769,0,0,0-5.533-14.825,46.52,46.52,0,0,0-.895-17.944,57.671,57.671,0,0,0-6.748-15.27C359.017,79.589,363.975,85.326,366.02,91.4Z" transform="translate(-159.51 -20.795)" fill="#0f90c0"/>
    <path id="Path_1073" data-name="Path 1073" d="M354.425,182.106c1.784,14.56-5.973,23.891-27.205,31.734a135.229,135.229,0,0,0,15.319-20.933,98.053,98.053,0,0,0,9.7-21.407,72.123,72.123,0,0,1,2.189,10.606Z" transform="translate(-147.66 -68.867)" fill="#00b0d0"/>
    <path id="Path_1074" data-name="Path 1074" d="M264.279,141.84a100.778,100.778,0,0,1,5.533,14.825,98.05,98.05,0,0,1-9.7,21.407A133.934,133.934,0,0,1,244.8,199a200.985,200.985,0,0,1-19.853,6c-18.274,4.663-31.139,8.2-41.02,10.151a189.7,189.7,0,0,1-21.492-7.717c17.364-2.039,58.544-3.039,75.918-17.809C252.083,177.947,262.1,159.084,264.279,141.84Z" transform="translate(-65.236 -54.032)" fill="#1a75b4"/>
    <path id="Path_1075" data-name="Path 1075" d="M202.979,67.516c9.662,8.677,17.8,20.593,23.382,32.663-2.179,17.244-12.2,36.107-25.931,47.788-17.374,14.77-58.554,15.769-75.938,17.824h0c-6.713-2.829-12.83-5.748-17.729-8.177-1.819-.9-3.569-1.769-5.238-2.614a179.058,179.058,0,0,1-9.652-18.768,90.467,90.467,0,0,1-5.253-14.11c1-2.689,3.229-8.457,6.183-15.18,4.338-4,8.627-8.047,13.09-11.921,3.234-2.789,6.5-5.528,9.871-8.182,3.434-2.724,6.933-5.368,10.531-7.872,1.9-1.325,3.839-2.614,5.8-3.844,19.293-12.046,38.016-18.523,59.379-16.054h0l.065.04q.36.2.72.42c.32.185.64.38.955.575l.77.5c.865.555,1.719,1.135,2.574,1.749l.715.5c.625.46,1.25.935,1.874,1.434.285.22.57.45.85.68l.125.1.875.7c.32.27.64.54.955.82S202.639,67.206,202.979,67.516Z" transform="translate(-27.318 -12.371)" fill="#065baa"/>
    <path id="Path_1076" data-name="Path 1076" d="M266.3,256.21c-8.372,9.157-18.314,16.364-30.324,18.993-8.7,1.889-19.588.3-30.549-2.809,9.881-1.949,22.747-5.5,41.02-10.151A200.958,200.958,0,0,0,266.3,256.21Z" transform="translate(-86.744 -111.237)" fill="#0f90c0"/>
    <path id="Path_1077" data-name="Path 1077" d="M330.408,82.747a57.671,57.671,0,0,0-6.748-15.27h0a78.229,78.229,0,0,0-22.347-7.192q-2.464-.435-4.883-.715l.065.04q.36.2.72.42c.32.185.64.38.955.575l.77.5c.865.555,1.719,1.135,2.574,1.749.24.17.475.34.715.5.625.46,1.25.935,1.874,1.434.285.22.57.445.85.68l.125.1c.29.235.575.5.865.72s.635.54.955.82.685.595,1.025.9c9.662,8.677,17.8,20.593,23.382,32.663A46.457,46.457,0,0,0,330.408,82.747Z" transform="translate(-132.26 -12.882)" fill="#1a75b4"/>
    <path id="Path_1078" data-name="Path 1078" d="M195.8,52.7c.625.32,1.25.655,1.869,1-21.362-2.469-40.086,4-59.379,16.054-1.964,1.23-3.9,2.5-5.8,3.844-3.6,2.5-7.1,5.148-10.541,7.872-3.349,2.654-6.638,5.393-9.871,8.182-4.463,3.874-8.752,7.922-13.09,11.921l.04-.09a181.947,181.947,0,0,1,11.206-21.927c1.31-2.1,2.769-4.288,4.413-6.5,7.252-4.953,21.612-14.03,37.891-20.273,8.622-3.309,16.309-4.948,23.412-4.948h1.05c.62,0,1.235.04,1.849.08l.68.05.745.065.445.045.83.1c.36.045.725.095,1.085.155h0c.3.045.61.1.91.155l.225.035.95.19c.765.16,1.524.34,2.279.545.21.05.42.11.625.175l.235.065.425.125.545.17c.35.11.7.225,1.045.345l.5.17c.5.18,1,.37,1.5.575q.33.13.66.27C193.626,51.639,194.711,52.148,195.8,52.7Z" transform="translate(-33.5 -7.015)" fill="#0f90c0"/>
    <path id="Path_1079" data-name="Path 1079" d="M190.189,34.137c-31.619,2.594-49.407,17.824-59.879,31.919,7.252-4.953,21.612-14.03,37.891-20.273,8.622-3.309,16.309-4.948,23.412-4.948h1.05c.62,0,1.235.04,1.849.08l.68.05.745.065.445.045.83.1c.365.045.725.095,1.085.155h0l.91.155.225.035.95.19c.765.16,1.524.34,2.279.545.21.055.42.11.625.175l.235.065.425.125.545.17c.35.11.7.225,1.045.345.16.05.32.11.5.17.5.18,1,.37,1.5.575q.33.13.66.27c1.1.46,2.184.97,3.269,1.5.625.32,1.25.655,1.869,1h0q2.414.275,4.883.715a78.617,78.617,0,0,1,22.342,7.177C232.164,41.51,217.034,31.908,190.189,34.137Z" transform="translate(-49.17 0)" fill="#eee809"/>
    <path id="Path_1080" data-name="Path 1080" d="M170.628,280.822c-10.236,2-17.269,2.334-23.782.425a27.449,27.449,0,0,1-11-6.5,92.883,92.883,0,0,0,10.306-1.259c1.05-.175,1.594-.235,2.939-.39h0A189.7,189.7,0,0,0,170.628,280.822Z" transform="translate(-51.941 -119.685)" fill="#00b0d0"/>
    <path id="Path_1081" data-name="Path 1081" d="M139.4,262.311c-1.345.155-1.889.215-2.939.39a92.925,92.925,0,0,1-10.306,1.26,57.812,57.812,0,0,1-9.722-12.441c1.669.845,3.419,1.709,5.238,2.614C126.566,256.563,132.709,259.482,139.4,262.311Z" transform="translate(-42.228 -108.891)" fill="#0f90c0"/>
    <path id="Path_1082" data-name="Path 1082" d="M96.566,238.455a58.409,58.409,0,0,0,9.722,12.441c-11,.655-21.182-1.614-26.79-12.551A25.866,25.866,0,0,1,76.748,225.4C81.1,230.238,87.794,234.022,96.566,238.455Z" transform="translate(-22.364 -95.827)" fill="#eee809"/>
    <path id="Path_1083" data-name="Path 1083" d="M106.82,98.32c-1.644,2.209-3.1,4.393-4.413,6.5A181.951,181.951,0,0,0,91.2,126.745l-.04.09c-1.764,1.629-3.534,3.244-5.333,4.838l-.335.3-2,1.774c-1-11.716,2.914-21.352,18.333-31.859C101.817,101.889,103.666,100.589,106.82,98.32Z" transform="translate(-25.681 -32.264)" fill="#00b0d0"/>
    <path id="Path_1084" data-name="Path 1084" d="M85.959,160.208c1.8-1.594,3.569-3.209,5.333-4.838-2.954,6.723-5.178,12.5-6.183,15.18a47.7,47.7,0,0,1-1.5-8.267l2-1.774Z" transform="translate(-25.812 -60.799)" fill="#1a75b4"/>
    <path id="Path_1085" data-name="Path 1085" d="M81.693,185.74a90.47,90.47,0,0,0,5.253,14.125A179.061,179.061,0,0,0,96.6,218.633c-8.772-4.433-15.469-8.217-19.818-13.055h0A52.044,52.044,0,0,1,81.1,187.369S81.308,186.775,81.693,185.74Z" transform="translate(-22.396 -75.99)" fill="#1a75b4"/>
    <path id="Path_1086" data-name="Path 1086" d="M76.2,177.467c-.385,1.035-.595,1.609-.595,1.609a52.044,52.044,0,0,0-4.318,18.208,21.492,21.492,0,0,1-5.248-10.391,14.488,14.488,0,0,1,2-10.086,31.342,31.342,0,0,1,6.673-7.607A47.693,47.693,0,0,0,76.2,177.467Z" transform="translate(-16.906 -67.717)" fill="#0f90c0"/>
    <path id="Path_1087" data-name="Path 1087" d="M166.91,146.671a9.143,9.143,0,0,1,5.073,8.632c-.06,7.367-4.528,13.345-13.165,13.345H139v-42.29h18.059a12.965,12.965,0,0,1,13.165,13A10.032,10.032,0,0,1,166.91,146.671ZM149.456,136.04v6.823h6.828c4.283,0,4.283-6.823-.06-6.823Zm0,15.824v7.182h8.637c4.348,0,4.288-7.182-.06-7.182Z" transform="translate(-53.517 -46.287)" fill="#fff"/>
    <path id="Path_1088" data-name="Path 1088" d="M233.917,159.168v9.5H212.48v-9.5h5.373V135.782H212.9V126.36h20.593v9.422h-4.948v23.387Z" transform="translate(-90.27 -46.289)" fill="#fff"/>
    <path id="Path_1089" data-name="Path 1089" d="M281.172,125.27c8.5.06,17.389,4.468,19.443,14.995H289.989c-1.754-3.624-4.528-5.073-8.817-5.073-6.823,0-10.5,5.313-10.5,11.776,0,7,4.1,11.591,10.5,11.591,4.348,0,7.127-1.145,9.057-5.193h-8.982v-9.372H301.24c.24,4.224.24,8.272-1.21,12.376-3,8.817-11.051,12.2-18.838,12.2-10.751,0-21.617-7.187-21.682-21.617C259.555,132.517,270.421,125.27,281.172,125.27Z" transform="translate(-113.793 -45.744)" fill="#fff"/>
    <path id="Path_1090" data-name="Path 1090" d="M188.718,234.64v6.2h-5V221.69h11.936v4.378h-6.938v4.194h6.138v4.378Z" transform="translate(-75.885 -93.971)" fill="#fff"/>
    <path id="Path_1091" data-name="Path 1091" d="M234.294,221.58h1.754v19.2h-5v-8.527l-4.084,4.273h-.545l-4.054-4.273v8.527h-5v-19.2h1.8l7.5,8.322Z" transform="translate(-92.716 -93.916)" fill="#fff"/>
    <path id="Path_1092" data-name="Path 1092" d="M216.234,95.4l4.079-6.928a5.918,5.918,0,0,1-6.683-6.133c0-4.5,3.069-6.573,7.282-6.573s7.4,2.054,7.4,6.573a6.622,6.622,0,0,1-1,3.779L221.722,95.4Zm2.274-13.06a2.3,2.3,0,0,0,2.409,2.409,2.19,2.19,0,0,0,2.409-2.409,2.279,2.279,0,0,0-2.409-2.384,2.309,2.309,0,0,0-2.409,2.384Z" transform="translate(-90.845 -20.985)" fill="#fff"/>
    <path id="Path_1093" data-name="Path 1093" d="M251.818,80.1a1.674,1.674,0,0,0-1.889,1.864h-4.164c-.055-4.134,2.739-6.163,6.133-6.243,5.5-.14,7.912,5.308,5.063,9.717L253.1,90.8H258.8v4.383H245.3v-.74L252.527,83.9C253.487,82.615,254.227,80.1,251.818,80.1Z" transform="translate(-106.686 -20.957)" fill="#fff"/>
    <path id="Path_1094" data-name="Path 1094" d="M274.71,92.914a2.234,2.234,0,0,1,4.458,0,2.237,2.237,0,0,1-4.458,0Z" transform="translate(-121.396 -28.517)" fill="#fff"/>
    <path id="Path_1095" data-name="Path 1095" d="M296.34,77.06l-7.747,18.428h-5.038L289.877,80.7H282.35V76.32h14Z" transform="translate(-125.217 -21.26)" fill="#fff"/>
  </g>
</svg>
