<svg xmlns="http://www.w3.org/2000/svg" width="50.886" height="52.527" viewBox="0 0 50.886 52.527">
  <g id="mail" transform="translate(0 0)">
    <path id="Path_1769" data-name="Path 1769" d="M48.9,57.39,25.1,40.155a.82.82,0,0,0-.963,0L.339,57.39A.821.821,0,0,0,0,58.055V87.6a.821.821,0,0,0,.821.821h47.6a.821.821,0,0,0,.821-.821V58.055A.821.821,0,0,0,48.9,57.39Zm0,0" transform="translate(0 -35.895)" fill="#f2d83d"/>
    <path id="Path_1770" data-name="Path 1770" d="M86.574,0H48.821A.821.821,0,0,0,48,.821V47.6a.821.821,0,0,0,.821.821H86.574A.821.821,0,0,0,87.4,47.6V.821A.821.821,0,0,0,86.574,0Zm0,0" transform="translate(-43.076)" fill="#e6e6e6"/>
    <g id="Group_586" data-name="Group 586" transform="translate(10.67 9.028)">
      <path id="Path_1771" data-name="Path 1771" d="M159.8,89.641h-22.98a.821.821,0,1,1,0-1.641H159.8a.821.821,0,1,1,0,1.641Zm0,0" transform="translate(-132.717 -88)" fill="#3d3d3d"/>
      <path id="Path_1772" data-name="Path 1772" d="M119.594,153.641H104.821a.821.821,0,0,1,0-1.641h14.773a.821.821,0,1,1,0,1.641Zm0,0" transform="translate(-104 -145.434)" fill="#3d3d3d"/>
      <path id="Path_1773" data-name="Path 1773" d="M111.387,217.641h-6.566a.821.821,0,0,1,0-1.641h6.566a.821.821,0,1,1,0,1.641Zm0,0" transform="translate(-104 -202.868)" fill="#3d3d3d"/>
      <path id="Path_1774" data-name="Path 1774" d="M213.952,217.641H200.821a.821.821,0,0,1,0-1.641h13.132a.821.821,0,0,1,0,1.641Zm0,0" transform="translate(-190.151 -202.868)" fill="#3d3d3d"/>
      <path id="Path_1775" data-name="Path 1775" d="M285.745,153.641h-4.924a.821.821,0,1,1,0-1.641h4.924a.821.821,0,1,1,0,1.641Zm0,0" transform="translate(-261.944 -145.434)" fill="#3d3d3d"/>
    </g>
    <path id="Path_1776" data-name="Path 1776" d="M48.821,237.471H86.574a.821.821,0,0,0,.821-.821V210.66L67.7,221.528,48,210.66v25.991A.821.821,0,0,0,48.821,237.471Zm0,0" transform="translate(-43.076 -189.048)" fill="#eaebef"/>
    <path id="Path_1777" data-name="Path 1777" d="M48.84,208.114a.821.821,0,0,0-.814-.012l-23.4,12.913L1.217,208.1A.82.82,0,0,0,0,208.821v29.546a.821.821,0,0,0,.821.821h47.6a.821.821,0,0,0,.821-.821V208.821A.821.821,0,0,0,48.84,208.114Zm0,0" transform="translate(0 -186.661)" fill="#f5e063"/>
    <path id="Path_1778" data-name="Path 1778" d="M48.423,325.031a.821.821,0,0,0,.821-.821v-4.979L30.425,303.656l-5.8,3.2-5.8-3.2L0,319.231v4.979a.821.821,0,0,0,.821.821Zm0,0" transform="translate(0 -272.504)" fill="#f2d83d"/>
    <path id="Path_1779" data-name="Path 1779" d="M48.947,299.885l-23.8-19.7a.821.821,0,0,0-1.047,0L.3,299.885a.821.821,0,0,0-.3.632v2.462a.821.821,0,0,0,.821.821h47.6a.821.821,0,0,0,.821-.821v-2.462A.821.821,0,0,0,48.947,299.885Zm0,0" transform="translate(0 -251.274)" fill="#f5e063"/>
    <path id="Path_1780" data-name="Path 1780" d="M359.387,56a7.387,7.387,0,1,0,7.387,7.387A7.4,7.4,0,0,0,359.387,56Zm0,0" transform="translate(-315.888 -50.255)" fill="#fb675f"/>
    <path id="Path_1781" data-name="Path 1781" d="M361.849,73.885A7.383,7.383,0,0,1,356.61,61.3a7.385,7.385,0,1,0,8.016,12.045A7.352,7.352,0,0,1,361.849,73.885Zm0,0" transform="translate(-315.888 -55.008)" fill="#fa544b"/>
    <path id="Path_1782" data-name="Path 1782" d="M402.462,102.564a.821.821,0,0,1-.821-.821V98.8l-.24.24a.821.821,0,0,1-1.161-1.161l1.641-1.641a.821.821,0,0,1,1.4.58v4.924A.821.821,0,0,1,402.462,102.564Zm0,0" transform="translate(-358.963 -86.15)" fill="#f4f5f7"/>
  </g>
</svg>
