<svg xmlns="http://www.w3.org/2000/svg" width="46" height="46" viewBox="0 0 46 46">
  <g id="manage_frequency_package" transform="translate(891 -394)">
    <g id="Group_8082" data-name="Group 8082" transform="translate(-4309 -338)">
      <rect id="Rectangle_655" data-name="Rectangle 655" width="46" height="46" transform="translate(3418 732)" fill="none"/>
    </g>
    <g id="noun_signal_369375" transform="translate(-886.4 393)">
      <path id="Path_2269" data-name="Path 2269" d="M7.083,32.569A15.936,15.936,0,0,1,7.083,10l2.138,2.138a12.946,12.946,0,0,0,0,18.259Zm4-4.039,2.138-2.138a7.21,7.21,0,0,1,0-10.181l-2.138-2.172A10.242,10.242,0,0,0,11.088,28.53Zm5.871-2.851V37.151h3.19V25.679a4.684,4.684,0,1,0-3.19,0Zm10.928,4.751,2.138,2.138a16,16,0,0,0,0-22.569l-2.138,2.138A12.987,12.987,0,0,1,27.888,30.431Zm-1.867-1.9a10.242,10.242,0,0,0,0-14.492l-2.138,2.138a7.21,7.21,0,0,1,0,10.181Z" transform="translate(0 0)" fill="#1d87cd"/>
    </g>
  </g>
</svg>
