<svg xmlns="http://www.w3.org/2000/svg" width="204.025" height="96.402" viewBox="0 0 204.025 96.402">
  <g id="Group_400" data-name="Group 400" transform="translate(-667.523 -653.548)" opacity="0.46">
    <g id="Group_399" data-name="Group 399" transform="translate(669.081 653.687)">
      <path id="Path_679" data-name="Path 679" d="M884.925,736.687s-40.893,14.849-79.609-31.876-81.53-21.062-81.53-21.062-50.09,25.626-24.7-17.161c.346-.584,5.928-9.946,6.3-10.555" transform="translate(-682.544 -654.983)" fill="none" stroke="#fff" stroke-miterlimit="10" stroke-width="0.509"/>
      <path id="Path_680" data-name="Path 680" d="M879.634,739.309s-40.893,14.849-79.609-31.876c-12.287-14.829-28.963-26.443-48.6-27.926a62.76,62.76,0,0,0-32.695,6.7,75.94,75.94,0,0,1-9.845,4.029c-5.4,1.807-16.623,5.616-20.8-.4-1.763-2.543-1.338-6.035-.681-8.866,1.384-5.955,8.946-20.392,11.989-25.638" transform="translate(-679.746 -654.592)" fill="none" stroke="#fff" stroke-miterlimit="10" stroke-width="0.509"/>
      <path id="Path_681" data-name="Path 681" d="M875.223,742.056s-40.894,14.849-79.609-31.876c-12.266-14.8-28.907-26.408-48.51-27.919a61.022,61.022,0,0,0-30.647,5.625c-6.81,3.251-14.225,6.14-21.872,6.4-3.235.111-7.016-.314-9.276-2.914-2.96-3.405-1.957-8.718-.84-12.638,1.5-5.263,8.207-19.113,10.833-23.892" transform="translate(-677.827 -654.325)" fill="none" stroke="#fff" stroke-miterlimit="10" stroke-width="0.509"/>
      <path id="Path_682" data-name="Path 682" d="M868.73,744.678s-40.893,14.849-79.609-31.876c-12.276-14.816-28.932-26.424-48.553-27.923a60.94,60.94,0,0,0-31.295,5.974,49.41,49.41,0,0,1-20.2,5.036c-3.367.07-7.173-.339-9.85-2.593-3.185-2.682-3.44-7.085-2.859-10.927,1.033-6.839,6.879-20.85,11.746-28.236" transform="translate(-673.825 -653.934)" fill="none" stroke="#fff" stroke-miterlimit="10" stroke-width="0.509"/>
      <path id="Path_683" data-name="Path 683" d="M863.415,747.445s-40.893,14.849-79.609-31.876c-12.288-14.83-28.965-26.445-48.607-27.927a61.209,61.209,0,0,0-30.893,5.811,44.253,44.253,0,0,1-21.3,4.392c-9.4-.624-13.259-7.251-11.644-16.24,1.205-6.707,7.242-20.77,11.906-27.918" transform="translate(-671.002 -653.687)" fill="none" stroke="#fff" stroke-miterlimit="10" stroke-width="0.509"/>
    </g>
    <path id="Path_684" data-name="Path 684" d="M993.206,836.424l.634-.767q2.614-3.16,5.227-6.321c.163-.2.313-.4.466-.607.075-.1.159-.162.282-.084a.2.2,0,0,1,.07.292,2.467,2.467,0,0,0-.328,1.963,6.477,6.477,0,0,1-.075,2.1,3.188,3.188,0,0,1-1.066,1.768,1.519,1.519,0,0,0-.423.508,2.556,2.556,0,0,1-.683.856,1,1,0,0,0-.315.457,3.388,3.388,0,0,1-2,1.877.453.453,0,0,1-.138.038c-.085.009-.164-.007-.18-.108-.012-.08.052-.107.112-.13a3.352,3.352,0,0,0,.959-.622,2.028,2.028,0,0,0,.782-2.245c-.171-.6-.306-1.2-.48-1.9l-.609.736q-1.238,1.5-2.477,2.993a1.968,1.968,0,0,1-3.1-.176,1.073,1.073,0,0,1,.5-1.686,2.386,2.386,0,0,1,2.5.614C992.97,836.1,993.061,836.231,993.206,836.424Zm3.992-.77a3.393,3.393,0,0,0,.1-3.494,1.854,1.854,0,0,0-.336,1.248C997.032,834.151,997.116,834.892,997.2,835.654Zm1.113-1.376a3.415,3.415,0,0,0,.232-3.607,1.414,1.414,0,0,0-.305,1.106A9.727,9.727,0,0,1,998.31,834.278Z" transform="translate(-177.879 -96.595)" fill="#fff"/>
    <path id="Path_685" data-name="Path 685" d="M917.609,774.2c-1.382-.165-2.778-.335-4.177-.5-1.26-.146-2.521-.283-3.781-.427-.64-.073-.646-.079-.853.539q-1.7,5.058-3.4,10.117a2.974,2.974,0,0,1-3.111,2.129,2.37,2.37,0,0,1-1.878-.785,1.354,1.354,0,0,1,.059-1.915,3.778,3.778,0,0,1,3.518-.988,4.345,4.345,0,0,1,1.047.544,1.917,1.917,0,0,0,.312-.733q1.781-5.291,3.554-10.585c.045-.134.086-.27.136-.4.175-.464.217-.5.729-.456.679.061,1.355.148,2.033.222q1.891.206,3.782.411c1.074.118,2.148.236,3.222.364.374.045.427.14.327.522-.042.159-.1.313-.155.47-1.371,4.087-2.8,8.156-4.084,12.27a3.307,3.307,0,0,1-4.532,1.755,1.5,1.5,0,0,1-.321-2.494,3.556,3.556,0,0,1,3.937-.6c.479.26.5.258.669-.256q1.11-3.281,2.205-6.565.371-1.106.74-2.212A.5.5,0,0,0,917.609,774.2Zm-8.163-2.2a.372.372,0,0,0,.34.2q3.978.449,7.958.892a.594.594,0,0,0,.207-.01.145.145,0,0,0,.01-.287,1.708,1.708,0,0,0-.209-.025q-3.839-.426-7.68-.849A.8.8,0,0,0,909.446,772Z" transform="translate(-128.402 -64.632)" fill="#fff"/>
    <path id="Path_686" data-name="Path 686" d="M1039.445,826.957c-1.238-.636-2.487-1.282-3.741-1.921-1.13-.576-2.264-1.144-3.4-1.718-.574-.292-.578-.3-.987.208q-3.356,4.148-6.708,8.3a2.974,2.974,0,0,1-3.658.911,2.37,2.37,0,0,1-1.487-1.39,1.355,1.355,0,0,1,.722-1.775,3.779,3.779,0,0,1,3.641.3c.351.208.518.592.792.875a1.915,1.915,0,0,0,.547-.578q3.514-4.338,7.02-8.683c.089-.11.174-.223.267-.329.326-.374.378-.395.842-.173.615.294,1.218.611,1.828.917q1.7.852,3.4,1.7c.966.485,1.932.97,2.893,1.464.335.172.351.279.124.6-.094.135-.205.258-.308.386-2.71,3.353-5.467,6.669-8.1,10.078a3.307,3.307,0,0,1-4.86.066,1.5,1.5,0,0,1,.568-2.449,3.555,3.555,0,0,1,3.9.812c.358.41.374.414.716-.007q2.183-2.688,4.355-5.386.733-.907,1.464-1.815A.5.5,0,0,0,1039.445,826.957Zm-6.884-4.908a.371.371,0,0,0,.25.3q3.573,1.807,7.148,3.61a.6.6,0,0,0,.2.063.145.145,0,0,0,.109-.266,1.691,1.691,0,0,0-.187-.1q-3.451-1.737-6.9-3.471A.8.8,0,0,0,1032.56,822.049Z" transform="translate(-194.295 -92.304)" fill="#fff"/>
    <path id="Path_687" data-name="Path 687" d="M835.688,723.564a.415.415,0,0,0,.029.368,2.352,2.352,0,0,0,3.461.935,3.01,3.01,0,0,0,.755-1.031q.4-.829.8-1.658c.217-.449.216-.449-.206-.687a5.406,5.406,0,0,1-2.747-5.27,4.78,4.78,0,0,1,4.033-4.247,18.6,18.6,0,0,1,3.733-.348.7.7,0,0,0,.729-.475,8.064,8.064,0,0,1,2.579-3.3,5.722,5.722,0,0,1,1.96-.948,2.553,2.553,0,0,1,1.17-.008.5.5,0,0,1,.438.5,4.474,4.474,0,0,1-.279,1.74,6.171,6.171,0,0,1-5.322,4.468,4.193,4.193,0,0,1-.932.1.325.325,0,0,0-.335.2c-.277.561-.551,1.123-.838,1.679-.117.228.006.341.166.456a3.486,3.486,0,0,1,1.447,2.175,3.286,3.286,0,0,1-3.285,3.956,5.325,5.325,0,0,1-1.2-.155.327.327,0,0,0-.438.211c-.324.667-.66,1.328-1,1.986a3.041,3.041,0,0,1-1.422,1.515,2.631,2.631,0,0,1-2.342-.188,3.228,3.228,0,0,1-1.859-2.328,1.709,1.709,0,0,1,2.559-1.9,1.555,1.555,0,0,1,.525,2.073,1.348,1.348,0,0,1-1.879.344C835.893,723.662,835.824,723.552,835.688,723.564Zm4.454-3.023c.219.168.456.352.709.518.276.181.41.12.549-.168.511-1.052,1.044-2.094,1.569-3.139.391-.779.32-.893-.583-.9a1.555,1.555,0,0,0-1.562,2.315c.02.042.039.084.056.127.048.118.123.254-.037.332-.142.069-.235-.034-.309-.15a3.21,3.21,0,0,1-.437-1.165,2.459,2.459,0,0,1,1.779-2.839,3.452,3.452,0,0,1,1.886-.005.342.342,0,0,0,.471-.21c.2-.429.418-.853.635-1.275.1-.2.082-.293-.173-.286-.394.011-.789-.017-1.182,0a7.141,7.141,0,0,0-3.393.753,3.118,3.118,0,0,0-1.641,3.452A4.5,4.5,0,0,0,840.142,720.54Zm7.324-10.213a5.69,5.69,0,0,0-.617,1.006c-.1.18-.089.262.153.263a7.176,7.176,0,0,0,2.258-.332,3.638,3.638,0,0,0,1.925-1.3.784.784,0,0,0-.47-1.292,1.781,1.781,0,0,0-.993.045A4.786,4.786,0,0,0,847.466,710.327Zm-3.229,10.543a2.406,2.406,0,0,0-.21-3.317c-.162-.164-.244-.09-.328.08q-.894,1.8-1.8,3.6c-.1.2-.024.277.164.3A2.4,2.4,0,0,0,844.237,720.87Z" transform="translate(-92.335 -29.345)" fill="#fff"/>
    <path id="Path_688" data-name="Path 688" d="M977.45,805.541a.413.413,0,0,0,.03.368,2.352,2.352,0,0,0,3.461.934,3.01,3.01,0,0,0,.755-1.031q.4-.829.8-1.658c.217-.449.216-.449-.206-.687a5.406,5.406,0,0,1-2.746-5.27,4.78,4.78,0,0,1,4.033-4.247,18.6,18.6,0,0,1,3.733-.348.7.7,0,0,0,.728-.475,8.068,8.068,0,0,1,2.579-3.3,5.725,5.725,0,0,1,1.96-.948,2.555,2.555,0,0,1,1.171-.008.5.5,0,0,1,.437.5,4.475,4.475,0,0,1-.279,1.74,6.171,6.171,0,0,1-5.322,4.468,4.2,4.2,0,0,1-.932.1.325.325,0,0,0-.335.2c-.277.561-.551,1.123-.837,1.679-.118.228.006.341.166.456a3.489,3.489,0,0,1,1.447,2.175,3.286,3.286,0,0,1-3.285,3.956,5.352,5.352,0,0,1-1.2-.155.328.328,0,0,0-.438.211c-.323.667-.66,1.328-1,1.986a3.045,3.045,0,0,1-1.422,1.515,2.631,2.631,0,0,1-2.342-.188,3.229,3.229,0,0,1-1.859-2.328,1.709,1.709,0,0,1,2.559-1.9,1.555,1.555,0,0,1,.525,2.073,1.347,1.347,0,0,1-1.879.343C977.655,805.639,977.585,805.529,977.45,805.541Zm4.454-3.023c.219.168.456.352.709.518.276.181.41.12.549-.168.511-1.052,1.044-2.094,1.569-3.139.391-.779.32-.893-.583-.9a1.555,1.555,0,0,0-1.562,2.315q.03.063.056.127c.048.118.123.254-.037.332-.142.069-.235-.034-.309-.15a3.211,3.211,0,0,1-.437-1.165,2.46,2.46,0,0,1,1.779-2.839,3.453,3.453,0,0,1,1.886-.005.342.342,0,0,0,.471-.21c.2-.429.418-.853.636-1.275.1-.2.081-.293-.173-.286-.394.011-.788-.017-1.182,0a7.139,7.139,0,0,0-3.393.753,3.117,3.117,0,0,0-1.641,3.452A4.5,4.5,0,0,0,981.9,802.517Zm7.323-10.213a5.672,5.672,0,0,0-.617,1.006c-.1.181-.089.262.153.263a7.176,7.176,0,0,0,2.258-.332,3.637,3.637,0,0,0,1.925-1.3.784.784,0,0,0-.47-1.292,1.781,1.781,0,0,0-.993.045A4.787,4.787,0,0,0,989.227,792.3ZM986,802.847a2.406,2.406,0,0,0-.21-3.317c-.162-.164-.244-.09-.329.08q-.893,1.8-1.8,3.6c-.1.2-.024.277.164.3A2.393,2.393,0,0,0,986,802.847Z" transform="translate(-170.618 -74.614)" fill="#fff"/>
    <path id="Path_689" data-name="Path 689" d="M892.35,758.96l3.65-2.232q.119-.073.239-.142c.1-.057.193-.081.278.024a.189.189,0,0,1-.031.3,2.665,2.665,0,0,0-.93,2.083,6.705,6.705,0,0,1-.642,2.334,3.287,3.287,0,0,1-1.956,1.618.887.887,0,0,0-.462.339,3.5,3.5,0,0,1-2.915,1.351c-.119,0-.262-.006-.268-.154-.007-.164.151-.1.24-.115a3.875,3.875,0,0,0,1.972-.687,2.158,2.158,0,0,0,.844-1.643,21.489,21.489,0,0,0-.048-2.328c-.011-.32-.18-.147-.292-.08-1.347.82-2.709,1.617-4.03,2.477a2,2,0,0,1-2.071.139,3.138,3.138,0,0,1-1.595-1.534,1.136,1.136,0,0,1,1.145-1.723,3.128,3.128,0,0,1,2.711,2.165c.075.288.163.259.364.135Q890.448,760.116,892.35,758.96Zm2.241-.844a3.112,3.112,0,0,0-1.19,2.031,16.74,16.74,0,0,1-.347,1.95c-.037.123-.125.242-.085.389a1.964,1.964,0,0,0,1.16-1A6.037,6.037,0,0,0,894.591,758.116Z" transform="translate(-119.64 -56.795)" fill="#fff"/>
    <path id="Path_690" data-name="Path 690" d="M733.171,728.076l1.9-3.835c.041-.083.084-.166.126-.248.052-.1.121-.172.248-.128a.188.188,0,0,1,.135.272,2.664,2.664,0,0,0,.324,2.258,6.714,6.714,0,0,1,.7,2.317,3.287,3.287,0,0,1-.793,2.412.89.89,0,0,0-.21.532,3.5,3.5,0,0,1-1.745,2.7c-.1.067-.224.135-.309.013s.073-.168.141-.225a3.872,3.872,0,0,0,1.3-1.633,2.156,2.156,0,0,0-.162-1.84,21.615,21.615,0,0,0-1.282-1.944c-.18-.264-.232-.028-.29.089-.7,1.411-1.429,2.812-2.089,4.244a2,2,0,0,1-1.678,1.222,3.138,3.138,0,0,1-2.167-.447,1.136,1.136,0,0,1,.05-2.068,3.128,3.128,0,0,1,3.447.386c.217.2.276.132.381-.08C731.852,730.735,732.513,729.406,733.171,728.076Zm1.445-1.909a3.114,3.114,0,0,0,.076,2.353,16.788,16.788,0,0,1,.746,1.834c.034.124.023.272.136.374a1.965,1.965,0,0,0,.447-1.467A6.039,6.039,0,0,0,734.617,726.167Z" transform="translate(-32.667 -38.746)" fill="#fff"/>
    <path id="Path_691" data-name="Path 691" d="M1084.182,840.121l3.65-2.232c.079-.048.159-.1.239-.142.1-.057.193-.081.278.024a.189.189,0,0,1-.03.3,2.663,2.663,0,0,0-.931,2.082,6.7,6.7,0,0,1-.642,2.334,3.285,3.285,0,0,1-1.957,1.618.888.888,0,0,0-.461.339,3.5,3.5,0,0,1-2.915,1.351c-.119,0-.261-.006-.268-.154-.007-.164.151-.1.24-.115a3.871,3.871,0,0,0,1.972-.687,2.158,2.158,0,0,0,.844-1.643,21.484,21.484,0,0,0-.048-2.328c-.011-.319-.18-.147-.292-.079-1.347.819-2.709,1.617-4.03,2.477a2,2,0,0,1-2.071.139,3.134,3.134,0,0,1-1.595-1.534,1.136,1.136,0,0,1,1.145-1.723,3.128,3.128,0,0,1,2.711,2.165c.075.288.163.259.365.135C1081.647,841.667,1082.915,840.9,1084.182,840.121Zm2.241-.844a3.11,3.11,0,0,0-1.19,2.031,16.725,16.725,0,0,1-.348,1.949c-.037.123-.125.242-.085.389a1.966,1.966,0,0,0,1.16-1A6.039,6.039,0,0,0,1086.422,839.278Z" transform="translate(-225.572 -101.613)" fill="#fff"/>
    <path id="Path_692" data-name="Path 692" d="M957.3,782.826q1.341-1.622,2.684-3.244a2.754,2.754,0,0,1,.235-.255.182.182,0,0,1,.253,0c.078.057.143.129.1.234a1.264,1.264,0,0,1-.123.248,2.99,2.99,0,0,0-.492,2.151c.1.665.186,1.333.247,2a3.229,3.229,0,0,1-1.535,3.269,7.926,7.926,0,0,1-1.924.875c-.135.042-.307.089-.352-.091-.037-.146.145-.153.243-.192a5.742,5.742,0,0,0,1.876-1.038,3.048,3.048,0,0,0,.627-3.754,4.348,4.348,0,0,0-.362-.592c-.244-.347-.293-.347-.556-.031q-.889,1.071-1.775,2.144c-.754.911-1.521,1.813-2.256,2.739a1.677,1.677,0,0,1-1.414.682,3.237,3.237,0,0,1-2.68-1.235,1.066,1.066,0,0,1,.741-1.826,3.282,3.282,0,0,1,3.236,1.254c.191.248.276.226.452.01C955.445,785.057,956.372,783.943,957.3,782.826Z" transform="translate(-155.873 -69.353)" fill="#fff"/>
    <path id="Path_693" data-name="Path 693" d="M811.239,700.959q1.953-.785,3.906-1.57a2.784,2.784,0,0,1,.328-.112.182.182,0,0,1,.221.124c.041.088.065.181-.02.255a1.236,1.236,0,0,1-.226.159,2.992,2.992,0,0,0-1.458,1.656c-.231.631-.472,1.26-.738,1.877a3.228,3.228,0,0,1-2.908,2.14,7.92,7.92,0,0,1-2.108-.149c-.138-.028-.312-.069-.266-.248.037-.146.2-.065.3-.053a5.739,5.739,0,0,0,2.143-.017,3.049,3.049,0,0,0,2.342-3,4.388,4.388,0,0,0-.035-.693c-.049-.42-.092-.445-.474-.292q-1.292.516-2.583,1.038c-1.1.441-2.2.867-3.289,1.331a1.676,1.676,0,0,1-1.567-.075,3.236,3.236,0,0,1-1.766-2.363,1.066,1.066,0,0,1,1.522-1.251,3.28,3.28,0,0,1,2.246,2.646c.05.309.136.33.393.225C808.547,702.036,809.894,701.5,811.239,700.959Z" transform="translate(-74.825 -25.171)" fill="#fff"/>
    <path id="Path_694" data-name="Path 694" d="M692.844,728.685q1.4-1.568,2.809-3.135a2.814,2.814,0,0,1,.245-.246.183.183,0,0,1,.253.013c.076.06.138.134.095.238a1.239,1.239,0,0,1-.132.243,2.99,2.99,0,0,0-.576,2.13c.072.669.133,1.339.167,2.01a3.229,3.229,0,0,1-1.662,3.206,7.925,7.925,0,0,1-1.957.8c-.136.036-.31.077-.348-.1-.031-.147.151-.147.251-.182a5.741,5.741,0,0,0,1.915-.964,3.048,3.048,0,0,0,.775-3.726,4.371,4.371,0,0,0-.338-.606c-.23-.356-.279-.358-.554-.052q-.931,1.034-1.858,2.073c-.789.881-1.591,1.751-2.362,2.648a1.677,1.677,0,0,1-1.439.625,3.236,3.236,0,0,1-2.629-1.339,1.066,1.066,0,0,1,.813-1.8,3.28,3.28,0,0,1,3.184,1.38c.181.255.267.236.452.028C690.906,730.842,691.876,729.765,692.844,728.685Z" transform="translate(-9.774 -39.523)" fill="#fff"/>
    <path id="Path_695" data-name="Path 695" d="M888.038,729.416c-.961,1.161-1.934,2.311-2.875,3.488a1.875,1.875,0,0,1-1.8.745,3.359,3.359,0,0,1-2.448-1.292c-.634-.855-.249-1.68.815-1.766a3.406,3.406,0,0,1,3.2,1.381c.206.276.283.1.4-.041l5.186-6.27c.081-.1.164-.2.249-.291a.218.218,0,0,1,.334-.045c.143.114.117.237.019.362-.064.082-.129.163-.2.244Z" transform="translate(-117.669 -39.527)" fill="#fff"/>
    <path id="Path_696" data-name="Path 696" d="M773.012,711.768c-.99,1.2-1.988,2.388-2.966,3.6a1.583,1.583,0,0,1-1.266.613,3.554,3.554,0,0,1-2.733-1.16,1.131,1.131,0,0,1,.242-1.795,1.63,1.63,0,0,1,1.055-.287,3.413,3.413,0,0,1,2.774,1.416c.184.267.27.085.378-.045q2.174-2.626,4.345-5.253.477-.576.955-1.152c.109-.132.229-.256.4-.1s.03.271-.064.384Q774.576,709.879,773.012,711.768ZM766.4,714.44a4.678,4.678,0,0,0,3.186.487c.133-.029.282-.1.28-.266a.441.441,0,0,0-.269-.376,5.224,5.224,0,0,0-2.709-.6,1.478,1.478,0,0,0-.474.092C766.071,713.9,766.039,714.129,766.4,714.44Z" transform="translate(-54.218 -29.733)" fill="#fff"/>
    <path id="Path_697" data-name="Path 697" d="M681.671,691.577c-.855-.471-1.718-.948-2.584-1.421-.781-.426-1.565-.846-2.346-1.271-.4-.216-.4-.221-.7.126q-2.435,2.841-4.867,5.685a2.084,2.084,0,0,1-2.582.566,1.663,1.663,0,0,1-1.015-1,.95.95,0,0,1,.541-1.23,2.651,2.651,0,0,1,2.547.283c.242.153.352.425.538.629a1.341,1.341,0,0,0,.395-.394q2.549-2.972,5.093-5.947c.064-.075.127-.153.194-.225.236-.256.273-.27.593-.1.425.218.842.452,1.263.678q1.175.631,2.35,1.261c.667.359,1.335.718,2,1.084.232.128.241.2.075.425-.069.093-.149.177-.224.265-1.966,2.3-3.965,4.566-5.88,6.9a2.319,2.319,0,0,1-3.408-.05,1.049,1.049,0,0,1,.447-1.706,2.493,2.493,0,0,1,2.717.647c.243.3.254.3.5.01q1.584-1.841,3.16-3.689.531-.621,1.062-1.243A.349.349,0,0,0,681.671,691.577ZM676.943,688a.261.261,0,0,0,.169.218q2.468,1.338,4.939,2.672a.424.424,0,0,0,.137.048.1.1,0,0,0,.082-.184,1.164,1.164,0,0,0-.129-.071q-2.384-1.286-4.77-2.57A.561.561,0,0,0,676.943,688Z" transform="translate(0 -18.484)" fill="#fff"/>
  </g>
</svg>
