<svg xmlns="http://www.w3.org/2000/svg" width="46" height="46" viewBox="0 0 46 46">
  <g id="rate_card" transform="translate(891 -726)">
    <g id="Group_8079" data-name="Group 8079" transform="translate(-4309 -6)">
      <rect id="Rectangle_655" data-name="Rectangle 655" width="46" height="46" transform="translate(3418 732)" fill="none"/>
    </g>
    <g id="noun_List_1340265" transform="translate(-884 733)">
      <path id="Path_2265" data-name="Path 2265" d="M-.085,0,0,31.841H13.282A13.286,13.286,0,0,1,23.244,7.977V0Zm8.7,10.985H3.6L3.51,8.438H8.618ZM19.463,6.036H3.6V3.489H19.463Z" fill="#1d87cd"/>
      <path id="Subtraction_1" data-name="Subtraction 1" d="M10.746,21.493A10.746,10.746,0,0,1,10.746,0,11.527,11.527,0,0,1,12.9.208V.217a10.749,10.749,0,0,1,0,21.06v.009A11.528,11.528,0,0,1,10.746,21.493ZM7.566,9.981a.233.233,0,0,0-.171.072.236.236,0,0,0-.072.171v.964a.228.228,0,0,0,.068.167c.963,1.023,2.235,2.481,3.779,4.333a.224.224,0,0,0,.189.091h1.48a.221.221,0,0,0,.22-.137.21.21,0,0,0-.03-.258c-1.472-1.8-2.643-3.173-3.483-4.067a3.863,3.863,0,0,0,2.095-.835,2.849,2.849,0,0,0,.979-1.776h1.275a.234.234,0,0,0,.243-.243V7.689a.234.234,0,0,0-.243-.243H12.6a2.63,2.63,0,0,0-.485-1.092h1.768a.233.233,0,0,0,.243-.243V5.337a.237.237,0,0,0-.068-.174.24.24,0,0,0-.175-.068H7.566a.234.234,0,0,0-.243.243V6.346a.234.234,0,0,0,.072.171.231.231,0,0,0,.171.072h1.1c1.062,0,1.746.289,2.033.858H7.566a.234.234,0,0,0-.243.243v.774a.234.234,0,0,0,.243.243h3.24a1.487,1.487,0,0,1-.778.948,3.44,3.44,0,0,1-1.612.326Z" transform="translate(10.508 10.507)" fill="#1d87cd"/>
    </g>
  </g>
</svg>
