<svg xmlns="http://www.w3.org/2000/svg" xmlns:xlink="http://www.w3.org/1999/xlink" width="164.637" height="157.087" viewBox="0 0 164.637 157.087">
  <defs>
    <clipPath id="clip-path">
      <rect width="164.637" height="157.087" fill="none"/>
    </clipPath>
  </defs>
  <g id="Repeat_Grid_1" data-name="Repeat Grid 1" opacity="0.2" clip-path="url(#clip-path)">
    <g id="Group_10" data-name="Group 10" transform="translate(-1134 -2867)">
      <circle id="Ellipse_5" data-name="Ellipse 5" cx="5.933" cy="5.933" r="5.933" transform="translate(1134 2867)" fill="#fff" opacity="0.5"/>
      <circle id="Ellipse_11" data-name="Ellipse 11" cx="5.933" cy="5.933" r="5.933" transform="translate(1134 2900.427)" fill="#fff" opacity="0.5"/>
      <circle id="Ellipse_15" data-name="Ellipse 15" cx="5.933" cy="5.933" r="5.933" transform="translate(1134 2933.855)" fill="#fff" opacity="0.5"/>
      <circle id="Ellipse_19" data-name="Ellipse 19" cx="5.933" cy="5.933" r="5.933" transform="translate(1134 2967.283)" fill="#fff" opacity="0.5"/>
      <circle id="Ellipse_21" data-name="Ellipse 21" cx="5.933" cy="5.933" r="5.933" transform="translate(1134 3000.22)" fill="#fff" opacity="0.5"/>
      <circle id="Ellipse_8" data-name="Ellipse 8" cx="5.933" cy="5.933" r="5.933" transform="translate(1212.514 2867)" fill="#fff" opacity="0.5"/>
      <circle id="Ellipse_10" data-name="Ellipse 10" cx="5.933" cy="5.933" r="5.933" transform="translate(1212.514 2900.427)" fill="#fff" opacity="0.5"/>
      <circle id="Ellipse_14" data-name="Ellipse 14" cx="5.933" cy="5.933" r="5.933" transform="translate(1212.514 2933.855)" fill="#fff" opacity="0.5"/>
      <circle id="Ellipse_18" data-name="Ellipse 18" cx="5.933" cy="5.933" r="5.933" transform="translate(1212.514 2967.283)" fill="#fff" opacity="0.5"/>
      <circle id="Ellipse_23" data-name="Ellipse 23" cx="5.933" cy="5.933" r="5.933" transform="translate(1212.514 3000.22)" fill="#fff" opacity="0.5"/>
      <circle id="Ellipse_6" data-name="Ellipse 6" cx="5.933" cy="5.933" r="5.933" transform="translate(1173.257 2867)" fill="#fff" opacity="0.5"/>
      <circle id="Ellipse_12" data-name="Ellipse 12" cx="5.933" cy="5.933" r="5.933" transform="translate(1173.257 2900.427)" fill="#fff" opacity="0.5"/>
      <circle id="Ellipse_16" data-name="Ellipse 16" cx="5.933" cy="5.933" r="5.933" transform="translate(1173.257 2933.855)" fill="#fff" opacity="0.5"/>
      <circle id="Ellipse_20" data-name="Ellipse 20" cx="5.933" cy="5.933" r="5.933" transform="translate(1173.257 2967.283)" fill="#fff" opacity="0.5"/>
      <circle id="Ellipse_22" data-name="Ellipse 22" cx="5.933" cy="5.933" r="5.933" transform="translate(1173.257 3000.22)" fill="#fff" opacity="0.5"/>
      <circle id="Ellipse_7" data-name="Ellipse 7" cx="5.933" cy="5.933" r="5.933" transform="translate(1251.771 2867)" fill="#fff" opacity="0.5"/>
      <circle id="Ellipse_9" data-name="Ellipse 9" cx="5.933" cy="5.933" r="5.933" transform="translate(1251.771 2900.427)" fill="#fff" opacity="0.5"/>
      <circle id="Ellipse_13" data-name="Ellipse 13" cx="5.933" cy="5.933" r="5.933" transform="translate(1251.771 2933.855)" fill="#fff" opacity="0.5"/>
      <circle id="Ellipse_17" data-name="Ellipse 17" cx="5.933" cy="5.933" r="5.933" transform="translate(1251.771 2967.283)" fill="#fff" opacity="0.5"/>
      <circle id="Ellipse_24" data-name="Ellipse 24" cx="5.933" cy="5.933" r="5.933" transform="translate(1251.771 3000.22)" fill="#fff" opacity="0.5"/>
    </g>
    <g id="Group_10-2" data-name="Group 10" transform="translate(-984 -2867)">
      <circle id="Ellipse_5-2" data-name="Ellipse 5" cx="5.933" cy="5.933" r="5.933" transform="translate(1134 2867)" fill="#fff" opacity="0.5"/>
      <circle id="Ellipse_11-2" data-name="Ellipse 11" cx="5.933" cy="5.933" r="5.933" transform="translate(1134 2900.427)" fill="#fff" opacity="0.5"/>
      <circle id="Ellipse_15-2" data-name="Ellipse 15" cx="5.933" cy="5.933" r="5.933" transform="translate(1134 2933.855)" fill="#fff" opacity="0.5"/>
      <circle id="Ellipse_19-2" data-name="Ellipse 19" cx="5.933" cy="5.933" r="5.933" transform="translate(1134 2967.283)" fill="#fff" opacity="0.5"/>
      <circle id="Ellipse_21-2" data-name="Ellipse 21" cx="5.933" cy="5.933" r="5.933" transform="translate(1134 3000.22)" fill="#fff" opacity="0.5"/>
      <circle id="Ellipse_8-2" data-name="Ellipse 8" cx="5.933" cy="5.933" r="5.933" transform="translate(1212.514 2867)" fill="#fff" opacity="0.5"/>
      <circle id="Ellipse_10-2" data-name="Ellipse 10" cx="5.933" cy="5.933" r="5.933" transform="translate(1212.514 2900.427)" fill="#fff" opacity="0.5"/>
      <circle id="Ellipse_14-2" data-name="Ellipse 14" cx="5.933" cy="5.933" r="5.933" transform="translate(1212.514 2933.855)" fill="#fff" opacity="0.5"/>
      <circle id="Ellipse_18-2" data-name="Ellipse 18" cx="5.933" cy="5.933" r="5.933" transform="translate(1212.514 2967.283)" fill="#fff" opacity="0.5"/>
      <circle id="Ellipse_23-2" data-name="Ellipse 23" cx="5.933" cy="5.933" r="5.933" transform="translate(1212.514 3000.22)" fill="#fff" opacity="0.5"/>
      <circle id="Ellipse_6-2" data-name="Ellipse 6" cx="5.933" cy="5.933" r="5.933" transform="translate(1173.257 2867)" fill="#fff" opacity="0.5"/>
      <circle id="Ellipse_12-2" data-name="Ellipse 12" cx="5.933" cy="5.933" r="5.933" transform="translate(1173.257 2900.427)" fill="#fff" opacity="0.5"/>
      <circle id="Ellipse_16-2" data-name="Ellipse 16" cx="5.933" cy="5.933" r="5.933" transform="translate(1173.257 2933.855)" fill="#fff" opacity="0.5"/>
      <circle id="Ellipse_20-2" data-name="Ellipse 20" cx="5.933" cy="5.933" r="5.933" transform="translate(1173.257 2967.283)" fill="#fff" opacity="0.5"/>
      <circle id="Ellipse_22-2" data-name="Ellipse 22" cx="5.933" cy="5.933" r="5.933" transform="translate(1173.257 3000.22)" fill="#fff" opacity="0.5"/>
      <circle id="Ellipse_7-2" data-name="Ellipse 7" cx="5.933" cy="5.933" r="5.933" transform="translate(1251.771 2867)" fill="#fff" opacity="0.5"/>
      <circle id="Ellipse_9-2" data-name="Ellipse 9" cx="5.933" cy="5.933" r="5.933" transform="translate(1251.771 2900.427)" fill="#fff" opacity="0.5"/>
      <circle id="Ellipse_13-2" data-name="Ellipse 13" cx="5.933" cy="5.933" r="5.933" transform="translate(1251.771 2933.855)" fill="#fff" opacity="0.5"/>
      <circle id="Ellipse_17-2" data-name="Ellipse 17" cx="5.933" cy="5.933" r="5.933" transform="translate(1251.771 2967.283)" fill="#fff" opacity="0.5"/>
      <circle id="Ellipse_24-2" data-name="Ellipse 24" cx="5.933" cy="5.933" r="5.933" transform="translate(1251.771 3000.22)" fill="#fff" opacity="0.5"/>
    </g>
  </g>
</svg>
