<svg xmlns="http://www.w3.org/2000/svg" width="6.378" height="10" viewBox="0 0 6.378 10"><defs><style>.a{fill:#fff;}</style></defs><g transform="translate(-72.806)"><path class="a" d="M79.12,2.266a.221.221,0,0,0-.163-.064H77.742a2.458,2.458,0,0,0-.455-1.023h1.655a.218.218,0,0,0,.227-.227V.227A.218.218,0,0,0,78.942,0H73.033a.219.219,0,0,0-.227.227v.945a.23.23,0,0,0,.227.227h1.03q1.5,0,1.9.8H73.033a.219.219,0,0,0-.227.227v.724a.219.219,0,0,0,.227.227h3.033a1.388,1.388,0,0,1-.728.888,3.2,3.2,0,0,1-1.509.305h-.8a.23.23,0,0,0-.227.227v.9a.212.212,0,0,0,.064.156q1.364,1.449,3.537,4.055a.209.209,0,0,0,.178.085h1.385a.206.206,0,0,0,.206-.128.194.194,0,0,0-.028-.241q-2.074-2.543-3.26-3.807a3.6,3.6,0,0,0,1.96-.781,2.655,2.655,0,0,0,.916-1.662h1.193a.219.219,0,0,0,.227-.227V2.429A.221.221,0,0,0,79.12,2.266Z" transform="translate(0 0)"/></g></svg>