<svg xmlns="http://www.w3.org/2000/svg" width="6.328" height="9.922" viewBox="0 0 6.328 9.922"><defs><style>.a{fill:#757575;}</style></defs><g transform="translate(-72.806)"><path class="a" d="M79.071,2.248a.219.219,0,0,0-.162-.063H77.7a2.439,2.439,0,0,0-.451-1.015h1.642A.217.217,0,0,0,79.12.944V.226A.217.217,0,0,0,78.895,0H73.031a.217.217,0,0,0-.225.225v.937a.229.229,0,0,0,.225.225h1.022q1.487,0,1.889.8h-2.91a.217.217,0,0,0-.225.225v.719a.217.217,0,0,0,.225.225h3.009a1.377,1.377,0,0,1-.722.881,3.18,3.18,0,0,1-1.5.3h-.789a.229.229,0,0,0-.225.225v.9a.211.211,0,0,0,.063.155q1.353,1.438,3.509,4.024a.208.208,0,0,0,.176.085h1.374a.2.2,0,0,0,.2-.127.193.193,0,0,0-.028-.24q-2.057-2.523-3.235-3.777A3.574,3.574,0,0,0,76.816,5a2.635,2.635,0,0,0,.909-1.649h1.184a.217.217,0,0,0,.226-.225V2.41A.219.219,0,0,0,79.071,2.248Z" transform="translate(0)"/></g></svg>