<svg xmlns="http://www.w3.org/2000/svg" width="26.026" height="26" viewBox="0 0 26.026 26"><defs><style>.a{fill:#fff;}</style></defs><g transform="translate(-90 -69.667)"><g transform="translate(89 68.667)"><path class="a" d="M27.026,16.806V11.22l-3.47-.295a10.237,10.237,0,0,0-.607-1.466L25.2,6.8,21.214,2.857,18.559,5.1a8.675,8.675,0,0,0-1.466-.633L16.806,1H11.22l-.295,3.47a9.335,9.335,0,0,0-1.466.607L6.8,2.857,2.857,6.8,5.095,9.458a11.347,11.347,0,0,0-.625,1.466L1,11.22v5.587l3.47.295a11.347,11.347,0,0,0,.607,1.466L2.857,21.222,6.8,25.17l2.655-2.247a9.326,9.326,0,0,0,1.466.607L11.22,27h5.587l.286-3.47a8.676,8.676,0,0,0,1.466-.607l2.655,2.247,3.956-3.947-2.247-2.655A10.236,10.236,0,0,0,23.53,17.1ZM14.013,19.218a5.205,5.205,0,1,1,5.205-5.205A5.205,5.205,0,0,1,14.013,19.218Z"/></g></g></svg>