<svg xmlns="http://www.w3.org/2000/svg" width="59.733" height="74.667" viewBox="0 0 59.733 74.667"><defs><style>.a{fill:#4e4e4e;opacity:0.84;}</style></defs><path class="a" d="M41.333,2H11.467A7.489,7.489,0,0,0,4,9.467V69.2a7.489,7.489,0,0,0,7.467,7.467h44.8A7.489,7.489,0,0,0,63.733,69.2V24.4ZM37.6,43.067V53.52c0,3.36-3.36,7.093-7.467,7.84-4.107,1.12-7.467-1.12-7.467-4.48s3.36-7.093,7.467-7.84a6.329,6.329,0,0,1,3.733,0V35.6H37.6c7.84,0,11.2,11.2,11.2,11.2S45.44,43.067,37.6,43.067Zm0-14.933V7.6L58.133,28.133Z" transform="translate(-4 -2)"/></svg>