<svg xmlns="http://www.w3.org/2000/svg" width="66.396" height="63.551" viewBox="0 0 66.396 63.551">
  <g id="star" transform="translate(0.001 -10.971)">
    <path id="Path_1096" data-name="Path 1096" d="M101.831,34.138,84.487,32.53l-6.889-16a1.39,1.39,0,0,0-2.553,0l-6.889,16L50.811,34.138a1.39,1.39,0,0,0-.789,2.428l13.086,11.5-3.83,16.992a1.39,1.39,0,0,0,2.065,1.5l14.977-8.893L91.3,66.555a1.39,1.39,0,0,0,2.065-1.5l-3.83-16.992,13.086-11.5A1.39,1.39,0,0,0,101.831,34.138Z" transform="translate(-43.122 -4.108)" fill="#ffdc64"/>
    <g id="Group_525" data-name="Group 525" transform="translate(0 10.971)">
      <path id="Path_1097" data-name="Path 1097" d="M92.918,11.873c.884,1.228,3.38,6.5,4.807,9.576a.482.482,0,0,1-.769.554c-2.462-2.328-6.672-6.368-7.557-7.6a2.168,2.168,0,0,1,3.519-2.533Z" transform="translate(-77.45 -10.971)" fill="#fff082"/>
      <path id="Path_1098" data-name="Path 1098" d="M360.139,11.873c-.884,1.228-3.38,6.5-4.807,9.576A.482.482,0,0,0,356.1,22c2.462-2.328,6.672-6.368,7.557-7.6a2.168,2.168,0,1,0-3.519-2.533Z" transform="translate(-309.211 -10.971)" fill="#fff082"/>
      <path id="Path_1099" data-name="Path 1099" d="M425.774,284.394c-1.439-.469-7.222-1.244-10.584-1.67a.482.482,0,0,0-.294.9c2.966,1.639,8.094,4.422,9.533,4.891a2.168,2.168,0,0,0,1.345-4.122Z" transform="translate(-360.874 -247.479)" fill="#fff082"/>
      <path id="Path_1100" data-name="Path 1100" d="M1.5,284.394c1.439-.469,7.222-1.244,10.584-1.67a.482.482,0,0,1,.294.9c-2.966,1.639-8.094,4.422-9.533,4.891A2.168,2.168,0,0,1,1.5,284.394Z" transform="translate(0 -247.479)" fill="#fff082"/>
      <path id="Path_1101" data-name="Path 1101" d="M239.794,410.675c0-1.513,1.056-7.252,1.694-10.58a.482.482,0,0,1,.948,0c.638,3.328,1.694,9.066,1.694,10.58a2.168,2.168,0,0,1-4.336,0Z" transform="translate(-208.697 -349.291)" fill="#fff082"/>
    </g>
    <path id="Path_1102" data-name="Path 1102" d="M80.1,22.349,77.6,16.532a1.39,1.39,0,0,0-2.553,0l-6.889,16L50.811,34.138a1.39,1.39,0,0,0-.789,2.428l13.086,11.5-3.83,16.992a1.39,1.39,0,0,0,2.065,1.5l1.993-1.184A107.9,107.9,0,0,1,80.1,22.349Z" transform="translate(-43.122 -4.108)" fill="#ffc850"/>
  </g>
</svg>
