<svg xmlns="http://www.w3.org/2000/svg" width="193.684" height="299.514" viewBox="0 0 193.684 299.514">
  <g id="Group_439" data-name="Group 439" transform="translate(-172.308 -469.135)">
    <rect id="Rectangle_395" data-name="Rectangle 395" width="162.089" height="39.071" transform="translate(172.307 602.24) rotate(-45)" fill="#a4a5a6"/>
    <rect id="Rectangle_396" data-name="Rectangle 396" width="162.089" height="39.071" transform="translate(337.794 629.867) rotate(-135)" fill="#a4a5a6"/>
    <circle id="Ellipse_2" data-name="Ellipse 2" cx="84.113" cy="84.113" r="84.113" transform="translate(185.274 469.135)" fill="#060707"/>
    <g id="Group_7" data-name="Group 7" transform="translate(219.742 520.345)">
      <g id="Group_6" data-name="Group 6">
        <path id="Path_53" data-name="Path 53" d="M200.951,544.108l20.392-15.565c5.058-3.97,7-6.538,7-9.807,0-3.425-2.413-5.526-6.071-5.526s-6.536,2.1-10.817,7.005l-10.2-8.482c5.837-7.55,11.6-11.675,22.181-11.675,11.909,0,20.079,7.081,20.079,17.355v.156c0,8.717-4.513,13.23-12.607,19.069l-9.34,6.536h22.492v12.3H200.951Z" transform="translate(-200.951 -500.058)" fill="#fff"/>
        <path id="Path_54" data-name="Path 54" d="M257.507,544.671H231.125l-2.491-10.661,28.25-33.622H272.14v33h6.927v11.284H272.14v10.585H257.507Zm0-11.206V517.82l-13,15.645Z" transform="translate(-182.79 -499.842)" fill="#fff"/>
      </g>
    </g>
    <rect id="Rectangle_397" data-name="Rectangle 397" width="193.209" height="39.071" transform="translate(172.782 601.75)" fill="#fff"/>
    <g id="Group_8" data-name="Group 8" transform="translate(231.937 615.162)">
      <path id="Path_55" data-name="Path 55" d="M208.315,569.39l1.807-2.164a6.386,6.386,0,0,0,4.152,1.689c1.25,0,2.005-.5,2.005-1.312v-.041c0-.775-.477-1.171-2.8-1.767-2.8-.715-4.607-1.49-4.607-4.251v-.038c0-2.524,2.025-4.191,4.865-4.191a8.039,8.039,0,0,1,5.164,1.767l-1.588,2.305a6.523,6.523,0,0,0-3.613-1.371c-1.172,0-1.79.536-1.79,1.212v.038c0,.914.6,1.212,3,1.828,2.82.735,4.408,1.749,4.408,4.17v.041c0,2.761-2.1,4.309-5.1,4.309A8.85,8.85,0,0,1,208.315,569.39Z" transform="translate(-208.315 -557.314)" fill="#060707"/>
      <path id="Path_56" data-name="Path 56" d="M220.022,560.254h-4.231v-2.82H227.31v2.82h-4.23v11.082h-3.059Z" transform="translate(-203.41 -557.235)" fill="#060707"/>
      <path id="Path_57" data-name="Path 57" d="M228.326,557.374h2.82l5.958,14h-3.2l-1.27-3.118h-5.879l-1.272,3.118h-3.12Zm3.216,8.184-1.846-4.509-1.846,4.509Z" transform="translate(-199.097 -557.275)" fill="#060707"/>
      <path id="Path_58" data-name="Path 58" d="M235.118,560.254h-4.231v-2.82h11.519v2.82h-4.231v11.082h-3.057Z" transform="translate(-193.507 -557.235)" fill="#060707"/>
      <path id="Path_59" data-name="Path 59" d="M239.263,557.434h10.486v2.721H242.3v2.82h6.555V565.7H242.3v2.92h7.546v2.721H239.263Z" transform="translate(-188.012 -557.235)" fill="#060707"/>
      <path id="Path_60" data-name="Path 60" d="M246.727,569.39l1.807-2.164a6.386,6.386,0,0,0,4.152,1.689c1.25,0,2.005-.5,2.005-1.312v-.041c0-.775-.477-1.171-2.8-1.767-2.8-.715-4.607-1.49-4.607-4.251v-.038c0-2.524,2.025-4.191,4.865-4.191a8.039,8.039,0,0,1,5.164,1.767l-1.588,2.305a6.523,6.523,0,0,0-3.613-1.371c-1.172,0-1.789.536-1.789,1.212v.038c0,.914.6,1.212,3,1.828,2.82.735,4.408,1.749,4.408,4.17v.041c0,2.761-2.1,4.309-5.1,4.309A8.854,8.854,0,0,1,246.727,569.39Z" transform="translate(-183.115 -557.314)" fill="#060707"/>
    </g>
    <path id="Rectangle_398" data-name="Rectangle 398" d="M0,0H193.209a0,0,0,0,1,0,0V122.825a5,5,0,0,1-5,5H5a5,5,0,0,1-5-5V0A0,0,0,0,1,0,0Z" transform="translate(172.782 640.821)" fill="#fbd109"/>
    <g id="Group_9" data-name="Group 9" transform="translate(217.781 667.619)">
      <path id="Path_61" data-name="Path 61" d="M210.448,598.2v-.046a6.532,6.532,0,0,1,13.061-.046v.046a6.4,6.4,0,0,1-6.565,6.379A6.335,6.335,0,0,1,210.448,598.2Zm10.254,0v-.046a3.787,3.787,0,0,0-3.758-3.943,3.675,3.675,0,0,0-3.688,3.9v.046a3.8,3.8,0,0,0,3.734,3.943A3.693,3.693,0,0,0,220.7,598.2Z" transform="translate(-192.76 -587.179)" fill="#060707"/>
      <path id="Path_62" data-name="Path 62" d="M219.969,599.7V591.9h2.805v6.96c0,1.9.952,2.991,2.622,2.991a2.724,2.724,0,0,0,2.761-3.039V591.9h2.809v12.248h-2.809v-1.9a4.406,4.406,0,0,1-3.827,2.156C221.57,604.407,219.969,602.551,219.969,599.7Z" transform="translate(-186.514 -587.078)" fill="#060707"/>
      <path id="Path_63" data-name="Path 63" d="M229.7,602.1v-6.449h-1.553v-2.413H229.7v-3.363h2.807v3.363H235.8v2.413h-3.294v6.006a1.337,1.337,0,0,0,1.509,1.532,3.777,3.777,0,0,0,1.739-.417v2.3a4.917,4.917,0,0,1-2.529.626C231.161,605.693,229.7,604.789,229.7,602.1Z" transform="translate(-181.15 -588.411)" fill="#060707"/>
      <path id="Path_64" data-name="Path 64" d="M238.266,598.2v-.046a6.532,6.532,0,0,1,13.059-.046v.046a6.4,6.4,0,0,1-6.563,6.379A6.335,6.335,0,0,1,238.266,598.2Zm10.252,0v-.046a3.785,3.785,0,0,0-3.756-3.943,3.675,3.675,0,0,0-3.69,3.9v.046a3.8,3.8,0,0,0,3.734,3.943A3.693,3.693,0,0,0,248.518,598.2Z" transform="translate(-174.51 -587.179)" fill="#060707"/>
      <path id="Path_65" data-name="Path 65" d="M248.864,596.228h-1.553v-2.343h1.553V593a4.168,4.168,0,0,1,1-3.039,3.715,3.715,0,0,1,2.761-.974,7.448,7.448,0,0,1,2.274.326v2.365a4.93,4.93,0,0,0-1.646-.3c-1.068,0-1.625.58-1.625,1.857v.672h3.247v2.32h-3.2v9.835h-2.805Z" transform="translate(-168.577 -588.99)" fill="#060707"/>
      <path id="Path_66" data-name="Path 66" d="M199.767,620.374l5.591-4.756c2.226-1.878,3.039-2.921,3.039-4.384a2.435,2.435,0,0,0-2.621-2.529c-1.485,0-2.506.813-3.759,2.436L200,609.564c1.555-2.179,3.085-3.41,5.985-3.41,3.178,0,5.359,1.949,5.359,4.849v.046c0,2.552-1.346,3.943-4.223,6.286l-3.339,2.784H211.5v2.505H199.767Z" transform="translate(-199.767 -577.73)" fill="#060707"/>
      <path id="Path_67" data-name="Path 67" d="M208.86,620.972l1.553-2.179a5.427,5.427,0,0,0,3.713,1.53c2.388,0,3.827-2.111,3.92-5.1a4.784,4.784,0,0,1-3.8,1.717c-3.456,0-5.753-2.017-5.753-5.15v-.046c0-3.178,2.459-5.614,6.054-5.614a5.82,5.82,0,0,1,4.5,1.717c1.207,1.207,1.972,2.992,1.972,6.193v.046c0,5.22-2.6,8.838-6.959,8.838A7.7,7.7,0,0,1,208.86,620.972Zm9.093-9.348v-.046c0-1.693-1.323-2.991-3.387-2.991a2.982,2.982,0,0,0-3.224,3.014v.046c0,1.694,1.3,2.9,3.317,2.9A3,3,0,0,0,217.953,611.624Z" transform="translate(-194.045 -577.748)" fill="#060707"/>
      <path id="Path_68" data-name="Path 68" d="M221.508,619.434l1.254-1.9a6.875,6.875,0,0,0,4.013,1.507c1.206,0,1.9-.51,1.9-1.322v-.046c0-.952-1.3-1.277-2.736-1.717-1.81-.51-3.829-1.252-3.829-3.6v-.046c0-2.32,1.926-3.736,4.362-3.736a8.494,8.494,0,0,1,4.5,1.393l-1.113,2A7.119,7.119,0,0,0,226.4,610.8c-1.091,0-1.717.512-1.717,1.23v.046c0,.881,1.323,1.252,2.761,1.717,1.787.556,3.8,1.368,3.8,3.572v.045c0,2.577-1.994,3.85-4.546,3.85A8.6,8.6,0,0,1,221.508,619.434Z" transform="translate(-185.504 -576.14)" fill="#060707"/>
      <path id="Path_69" data-name="Path 69" d="M229.935,618.9v-6.45h-1.553v-2.411h1.553v-3.363h2.809v3.363h3.294v2.411h-3.294v6.008a1.337,1.337,0,0,0,1.507,1.532,3.772,3.772,0,0,0,1.741-.417v2.3a4.917,4.917,0,0,1-2.529.626C231.4,622.493,229.935,621.589,229.935,618.9Z" transform="translate(-180.995 -577.389)" fill="#060707"/>
      <path id="Path_70" data-name="Path 70" d="M242.534,621.025v-1.507a4.956,4.956,0,0,1-3.966,1.762c-2.32,0-4.362-1.323-4.362-3.781v-.046c0-2.714,2.111-4.013,4.965-4.013a10.351,10.351,0,0,1,3.387.508v-.23c0-1.694-1.066-2.622-3.016-2.622a8.5,8.5,0,0,0-3.5.765l-.765-2.251a10.5,10.5,0,0,1,4.662-1.02c3.62,0,5.382,1.9,5.382,5.172v7.262Zm.068-5.127a8.006,8.006,0,0,0-2.805-.487c-1.762,0-2.807.719-2.807,1.9v.046c0,1.159,1.045,1.81,2.366,1.81,1.856,0,3.246-1.045,3.246-2.577Z" transform="translate(-177.174 -576.13)" fill="#060707"/>
      <path id="Path_71" data-name="Path 71" d="M243.823,618.9v-6.45H242.27v-2.411h1.553v-3.363h2.807v3.363h3.3v2.411h-3.3v6.008a1.337,1.337,0,0,0,1.509,1.532,3.765,3.765,0,0,0,1.739-.417v2.3a4.911,4.911,0,0,1-2.527.626C245.286,622.493,243.823,621.589,243.823,618.9Z" transform="translate(-171.884 -577.389)" fill="#060707"/>
      <path id="Path_72" data-name="Path 72" d="M247.982,614.975v-.046a6.078,6.078,0,0,1,5.985-6.379c3.9,0,5.869,3.062,5.869,6.588,0,.255-.023.51-.048.788h-9a3.418,3.418,0,0,0,3.526,3.108,4.442,4.442,0,0,0,3.317-1.462l1.648,1.462a6.192,6.192,0,0,1-5.011,2.3A6.111,6.111,0,0,1,247.982,614.975Zm9.07-.9c-.185-1.81-1.254-3.224-3.108-3.224-1.717,0-2.923,1.321-3.178,3.224Z" transform="translate(-168.136 -576.158)" fill="#060707"/>
      <path id="Path_73" data-name="Path 73" d="M256.242,619.434l1.252-1.9a6.88,6.88,0,0,0,4.014,1.507c1.207,0,1.9-.51,1.9-1.322v-.046c0-.952-1.3-1.277-2.737-1.717-1.81-.51-3.825-1.252-3.825-3.6v-.046c0-2.32,1.924-3.736,4.359-3.736a8.495,8.495,0,0,1,4.5,1.393l-1.115,2a7.108,7.108,0,0,0-3.456-1.161c-1.09,0-1.716.512-1.716,1.23v.046c0,.881,1.322,1.252,2.761,1.717,1.785.556,3.8,1.368,3.8,3.572v.045c0,2.577-2,3.85-4.546,3.85A8.594,8.594,0,0,1,256.242,619.434Z" transform="translate(-162.718 -576.14)" fill="#060707"/>
      <path id="Path_74" data-name="Path 74" d="M203.442,631.8v-.045a6.315,6.315,0,0,1,6.354-6.4,6.114,6.114,0,0,1,4.9,2.11l-1.739,1.879a4.122,4.122,0,0,0-3.178-1.532,3.676,3.676,0,0,0-3.526,3.9v.046a3.726,3.726,0,0,0,3.665,3.943,4.31,4.31,0,0,0,3.178-1.532l1.692,1.671a6.421,6.421,0,0,1-11.342-4.038Z" transform="translate(-197.356 -565.137)" fill="#060707"/>
      <path id="Path_75" data-name="Path 75" d="M211.226,631.8v-.045a6.531,6.531,0,0,1,13.058-.046v.046a6.4,6.4,0,0,1-6.563,6.379A6.335,6.335,0,0,1,211.226,631.8Zm10.253,0v-.045a3.786,3.786,0,0,0-3.758-3.945,3.676,3.676,0,0,0-3.688,3.9v.046a3.8,3.8,0,0,0,3.734,3.943A3.693,3.693,0,0,0,221.478,631.8Z" transform="translate(-192.25 -565.137)" fill="#060707"/>
      <path id="Path_76" data-name="Path 76" d="M219.709,625.5h3.016l3.3,9,3.317-9h2.946l-5.011,12.341h-2.529Z" transform="translate(-186.684 -565.036)" fill="#060707"/>
      <path id="Path_77" data-name="Path 77" d="M227.913,631.775v-.048a6.078,6.078,0,0,1,5.985-6.378c3.9,0,5.869,3.061,5.869,6.586,0,.257-.023.512-.046.79h-9a3.416,3.416,0,0,0,3.524,3.108,4.445,4.445,0,0,0,3.317-1.462l1.648,1.462a6.2,6.2,0,0,1-5.011,2.3A6.111,6.111,0,0,1,227.913,631.775Zm9.07-.9c-.185-1.81-1.252-3.224-3.108-3.224-1.716,0-2.923,1.32-3.178,3.224Z" transform="translate(-181.302 -565.137)" fill="#060707"/>
      <path id="Path_78" data-name="Path 78" d="M236.776,625.6h2.805v2.761a4.348,4.348,0,0,1,4.339-2.992v2.969h-.164c-2.458,0-4.175,1.6-4.175,4.849v4.663h-2.805Z" transform="translate(-175.488 -565.13)" fill="#060707"/>
      <path id="Path_79" data-name="Path 79" d="M241.9,631.775v-.048a6.078,6.078,0,0,1,5.985-6.378c3.9,0,5.869,3.061,5.869,6.586,0,.257-.023.512-.048.79h-9a3.418,3.418,0,0,0,3.526,3.108,4.442,4.442,0,0,0,3.317-1.462l1.648,1.462a6.193,6.193,0,0,1-5.011,2.3A6.111,6.111,0,0,1,241.9,631.775Zm9.07-.9c-.185-1.81-1.254-3.224-3.108-3.224-1.717,0-2.923,1.32-3.178,3.224Z" transform="translate(-172.127 -565.137)" fill="#060707"/>
      <path id="Path_80" data-name="Path 80" d="M250.383,633.508v-.046c0-4.059,2.761-6.356,5.684-6.356a5.066,5.066,0,0,1,4.175,2.158v-6.589h2.807v16.935h-2.807v-2.042a4.9,4.9,0,0,1-4.175,2.3C253.19,639.864,250.383,637.567,250.383,633.508Zm9.9,0v-.046a3.676,3.676,0,0,0-3.549-3.921,3.592,3.592,0,0,0-3.526,3.921v.046a3.643,3.643,0,0,0,3.526,3.92A3.689,3.689,0,0,0,260.288,633.508Z" transform="translate(-166.561 -566.892)" fill="#060707"/>
    </g>
  </g>
</svg>
