<svg xmlns="http://www.w3.org/2000/svg" width="200.973" height="310.784" viewBox="0 0 200.973 310.784">
  <g id="Group_5" data-name="Group 5" transform="translate(-34 -412.19)">
    <rect id="Rectangle_391" data-name="Rectangle 391" width="168.189" height="40.541" transform="translate(34 550.304) rotate(-45)" fill="#a4a5a6"/>
    <rect id="Rectangle_392" data-name="Rectangle 392" width="168.189" height="40.541" transform="translate(205.714 578.971) rotate(-135)" fill="#a4a5a6"/>
    <circle id="Ellipse_1" data-name="Ellipse 1" cx="87.278" cy="87.278" r="87.278" transform="translate(47.454 412.19)" fill="#060707"/>
    <g id="Group_2" data-name="Group 2" transform="translate(85.526 463.448)">
      <g id="Group_1" data-name="Group 1">
        <path id="Path_20" data-name="Path 20" d="M63.986,491.374l8.965-10.5c4.6,3.877,8.965,6.138,13.73,6.138,5.167,0,8.317-2.584,8.317-6.623v-.161c0-4.038-3.39-6.54-8.317-6.54a17.118,17.118,0,0,0-9.045,2.825l-9.286-5.167,1.614-28.669h37.8V455.6H82.317l-.483,8.561a19.962,19.962,0,0,1,9.045-2.019c10.174,0,19.381,5.652,19.381,17.928v.161c0,12.6-9.611,20.11-23.339,20.11A31.721,31.721,0,0,1,63.986,491.374Z" transform="translate(-63.986 -441.547)" fill="#fff"/>
        <path id="Path_21" data-name="Path 21" d="M95.3,494.107l7.349-10.82c3.877,3.067,7.59,4.523,12.113,4.523,6.461,0,9.935-4.523,10.661-11.791a17.052,17.052,0,0,1-11.953,4.605c-10.982,0-18.977-6.786-18.977-17.848v-.161c0-12.518,9.611-20.593,22.533-20.593,8.238,0,13.082,2.34,17.362,6.621,4.119,4.038,6.782,10.5,6.782,20.916v.163c0,18.493-9.205,31.092-26.164,31.092A30.487,30.487,0,0,1,95.3,494.107Zm30.365-32.059v-.163c0-4.359-3.15-7.671-8.075-7.671s-7.915,3.231-7.915,7.59v.163c0,4.279,3.148,7.428,8.076,7.428S125.662,466.165,125.662,462.047Z" transform="translate(-42.074 -442.02)" fill="#fff"/>
      </g>
    </g>
    <rect id="Rectangle_393" data-name="Rectangle 393" width="200.479" height="40.541" transform="translate(34.493 549.796)" fill="#fff"/>
    <g id="Group_3" data-name="Group 3" transform="translate(82.409 563.672)">
      <path id="Path_22" data-name="Path 22" d="M62.172,512.9l1.875-2.244a6.627,6.627,0,0,0,4.308,1.751c1.3,0,2.083-.515,2.083-1.361V511c0-.8-.5-1.215-2.907-1.835-2.906-.741-4.78-1.545-4.78-4.409v-.04c0-2.619,2.1-4.351,5.049-4.351a8.354,8.354,0,0,1,5.36,1.835l-1.65,2.39a6.778,6.778,0,0,0-3.751-1.421c-1.215,0-1.854.555-1.854,1.258v.04c0,.949.617,1.256,3.11,1.9,2.928.763,4.578,1.813,4.578,4.327v.043c0,2.864-2.186,4.471-5.3,4.471A9.18,9.18,0,0,1,62.172,512.9Z" transform="translate(-62.172 -500.329)" fill="#060707"/>
      <path id="Path_23" data-name="Path 23" d="M74.037,503.417H69.648v-2.928H81.6v2.928H77.212v11.5H74.037Z" transform="translate(-56.802 -500.243)" fill="#060707"/>
      <path id="Path_24" data-name="Path 24" d="M82.4,500.43h2.928l6.183,14.529H88.2l-1.32-3.236h-6.1l-1.318,3.236H76.224Zm3.34,8.49-1.916-4.677-1.918,4.677Z" transform="translate(-52.078 -500.286)" fill="#060707"/>
      <path id="Path_25" data-name="Path 25" d="M89.133,503.417h-4.39v-2.928H96.7v2.928H92.309v11.5H89.133Z" transform="translate(-45.958 -500.243)" fill="#060707"/>
      <path id="Path_26" data-name="Path 26" d="M93.2,500.489h3.176v14.427H93.2Z" transform="translate(-39.881 -500.243)" fill="#060707"/>
      <path id="Path_27" data-name="Path 27" d="M96.779,507.847v-.04a7.67,7.67,0,0,1,15.333-.043v.043a7.67,7.67,0,0,1-15.333.04Zm12.016,0v-.04a4.383,4.383,0,0,0-4.368-4.535,4.315,4.315,0,0,0-4.33,4.492v.043a4.383,4.383,0,0,0,4.37,4.531A4.314,4.314,0,0,0,108.8,507.847Z" transform="translate(-37.312 -500.346)" fill="#060707"/>
      <path id="Path_28" data-name="Path 28" d="M107.351,500.489h2.926l6.76,8.882v-8.882h3.133v14.427h-2.7l-6.985-9.171v9.171h-3.133Z" transform="translate(-29.718 -500.243)" fill="#060707"/>
      <path id="Path_29" data-name="Path 29" d="M116.255,512.9l1.876-2.244a6.624,6.624,0,0,0,4.308,1.751c1.3,0,2.081-.515,2.081-1.361V511c0-.8-.5-1.215-2.906-1.835-2.906-.741-4.782-1.545-4.782-4.409v-.04c0-2.619,2.1-4.351,5.048-4.351a8.35,8.35,0,0,1,5.36,1.835l-1.648,2.39a6.787,6.787,0,0,0-3.751-1.421c-1.217,0-1.856.555-1.856,1.258v.04c0,.949.619,1.256,3.112,1.9,2.928.763,4.576,1.813,4.576,4.327v.043c0,2.864-2.186,4.471-5.3,4.471A9.181,9.181,0,0,1,116.255,512.9Z" transform="translate(-23.322 -500.329)" fill="#060707"/>
    </g>
    <path id="Rectangle_394" data-name="Rectangle 394" d="M0,0H200.479a0,0,0,0,1,0,0V128.034a4.6,4.6,0,0,1-4.6,4.6H4.6a4.6,4.6,0,0,1-4.6-4.6V0A0,0,0,0,1,0,0Z" transform="translate(34.493 590.338)" fill="#fbd109"/>
    <g id="Group_4" data-name="Group 4" transform="translate(74.891 618.288)">
      <path id="Path_30" data-name="Path 30" d="M69.313,532.55h2.959V549.4H69.313Z" transform="translate(-49.525 -531.828)" fill="#060707"/>
      <path id="Path_31" data-name="Path 31" d="M73.456,535.069h2.913v1.976a4.575,4.575,0,0,1,3.973-2.239c2.864,0,4.524,1.925,4.524,4.885v8.088H81.953v-7.221c0-1.974-.986-3.105-2.72-3.105a2.827,2.827,0,0,0-2.864,3.153v7.172H73.456Z" transform="translate(-46.548 -530.208)" fill="#060707"/>
      <path id="Path_32" data-name="Path 32" d="M81.758,543.371v-.048c0-4.212,2.864-6.595,5.9-6.595a5.257,5.257,0,0,1,4.332,2.239V532.13H94.9V549.7H91.987v-2.119a5.083,5.083,0,0,1-4.332,2.383C84.671,549.966,81.758,547.583,81.758,543.371Zm10.277,0v-.048a3.812,3.812,0,0,0-3.682-4.067c-2,0-3.658,1.54-3.658,4.067v.048a3.78,3.78,0,0,0,3.658,4.067A3.828,3.828,0,0,0,92.035,543.371Z" transform="translate(-40.585 -532.13)" fill="#060707"/>
      <path id="Path_33" data-name="Path 33" d="M91.544,532.214h3.129v2.768H91.544Zm.12,4.717h2.913v12.711H91.664Z" transform="translate(-33.555 -532.07)" fill="#060707"/>
      <path id="Path_34" data-name="Path 34" d="M103.656,547.749v-1.565a5.134,5.134,0,0,1-4.114,1.83c-2.409,0-4.526-1.373-4.526-3.923v-.05c0-2.815,2.189-4.162,5.152-4.162a10.751,10.751,0,0,1,3.514.528v-.239c0-1.758-1.108-2.72-3.131-2.72a8.857,8.857,0,0,0-3.634.792l-.794-2.334a10.907,10.907,0,0,1,4.839-1.058c3.755,0,5.585,1.973,5.585,5.366v7.535Zm.072-5.32a8.315,8.315,0,0,0-2.911-.505c-1.83,0-2.914.746-2.914,1.973v.05c0,1.2,1.084,1.876,2.456,1.876,1.926,0,3.37-1.083,3.37-2.672Z" transform="translate(-31.061 -530.178)" fill="#060707"/>
      <path id="Path_35" data-name="Path 35" d="M103.22,538.111c1.467-.265,2.167-1.012,2.045-2.263h-1.227v-3.3h3.2v2.818c0,2.67-1.277,3.8-3.708,4Z" transform="translate(-25.168 -531.828)" fill="#060707"/>
      <path id="Path_36" data-name="Path 36" d="M106.622,546.1l1.3-1.974a7.13,7.13,0,0,0,4.165,1.565c1.249,0,1.973-.529,1.973-1.371v-.05c0-.986-1.347-1.323-2.84-1.78-1.878-.529-3.971-1.3-3.971-3.732v-.047c0-2.407,2-3.877,4.524-3.877a8.8,8.8,0,0,1,4.67,1.445l-1.156,2.071a7.381,7.381,0,0,0-3.586-1.2c-1.131,0-1.78.531-1.78,1.277v.046c0,.916,1.371,1.3,2.864,1.784,1.852.576,3.947,1.419,3.947,3.706V544c0,2.674-2.071,4-4.717,4A8.929,8.929,0,0,1,106.622,546.1Z" transform="translate(-22.724 -530.188)" fill="#060707"/>
      <path id="Path_37" data-name="Path 37" d="M57.8,562.9l1.3-1.974a7.121,7.121,0,0,0,4.164,1.564c1.251,0,1.973-.527,1.973-1.37v-.05c0-.986-1.347-1.323-2.839-1.78-1.878-.531-3.973-1.3-3.973-3.732v-.047c0-2.409,2-3.876,4.526-3.876a8.8,8.8,0,0,1,4.669,1.445l-1.155,2.071a7.369,7.369,0,0,0-3.586-1.2c-1.132,0-1.782.529-1.782,1.277v.046c0,.914,1.373,1.3,2.864,1.782,1.854.577,3.947,1.421,3.947,3.708v.046c0,2.674-2.069,4-4.717,4A8.933,8.933,0,0,1,57.8,562.9Z" transform="translate(-57.797 -518.12)" fill="#060707"/>
      <path id="Path_38" data-name="Path 38" d="M66.285,562.414v-6.693H64.671v-2.5h1.614v-3.49H69.2v3.49h3.416v2.5H69.2v6.234a1.387,1.387,0,0,0,1.564,1.589,3.926,3.926,0,0,0,1.806-.433v2.383a5.108,5.108,0,0,1-2.626.648C67.8,566.143,66.285,565.206,66.285,562.414Z" transform="translate(-52.859 -519.488)" fill="#060707"/>
      <path id="Path_39" data-name="Path 39" d="M71,551.863h2.913v2.863a4.51,4.51,0,0,1,4.5-3.105V554.7h-.168c-2.552,0-4.334,1.662-4.334,5.031v4.837H71Z" transform="translate(-48.313 -518.132)" fill="#060707"/>
      <path id="Path_40" data-name="Path 40" d="M76.123,558.3v-.047a6.777,6.777,0,0,1,13.551-.048v.048a6.644,6.644,0,0,1-6.812,6.617A6.572,6.572,0,0,1,76.123,558.3Zm10.64,0v-.047a3.93,3.93,0,0,0-3.9-4.093,3.815,3.815,0,0,0-3.827,4.045v.048a3.939,3.939,0,0,0,3.875,4.091A3.833,3.833,0,0,0,86.763,558.3Z" transform="translate(-44.633 -518.139)" fill="#060707"/>
      <path id="Path_41" data-name="Path 41" d="M85.728,551.871h2.911v1.973a4.573,4.573,0,0,1,3.973-2.237c2.863,0,4.524,1.925,4.524,4.885v8.087H94.224v-7.221c0-1.973-.986-3.1-2.72-3.1a2.827,2.827,0,0,0-2.864,3.153v7.171H85.728Z" transform="translate(-37.733 -518.139)" fill="#060707"/>
      <path id="Path_42" data-name="Path 42" d="M94.656,566.961l1.083-2.189a8.271,8.271,0,0,0,4.524,1.347c2.6,0,4.019-1.347,4.019-3.9v-.986a5.32,5.32,0,0,1-4.476,2.337,5.711,5.711,0,0,1-5.777-5.946v-.05a5.73,5.73,0,0,1,5.777-5.968,5.488,5.488,0,0,1,4.454,2.165v-1.9h2.911V561.98a6.5,6.5,0,0,1-1.614,4.789,7.145,7.145,0,0,1-5.222,1.71A10.95,10.95,0,0,1,94.656,566.961Zm9.65-9.338v-.05a3.554,3.554,0,0,0-3.731-3.514,3.434,3.434,0,0,0-3.61,3.492v.046a3.468,3.468,0,0,0,3.61,3.516A3.565,3.565,0,0,0,104.306,557.624Z" transform="translate(-31.77 -518.139)" fill="#060707"/>
      <path id="Path_43" data-name="Path 43" d="M103.381,558.273v-.05a6.306,6.306,0,0,1,6.21-6.617c4.043,0,6.09,3.175,6.09,6.834,0,.265-.024.531-.048.82h-9.341a3.549,3.549,0,0,0,3.66,3.225,4.614,4.614,0,0,0,3.442-1.517l1.708,1.517a6.423,6.423,0,0,1-5.2,2.382A6.339,6.339,0,0,1,103.381,558.273Zm9.411-.938c-.192-1.878-1.3-3.347-3.225-3.347-1.782,0-3.033,1.371-3.3,3.347Z" transform="translate(-25.052 -518.139)" fill="#060707"/>
      <path id="Path_44" data-name="Path 44" d="M111.641,562.9l1.3-1.974a7.117,7.117,0,0,0,4.162,1.564c1.253,0,1.974-.527,1.974-1.37v-.05c0-.986-1.347-1.323-2.839-1.78-1.878-.531-3.973-1.3-3.973-3.732v-.047c0-2.409,2-3.876,4.526-3.876a8.8,8.8,0,0,1,4.669,1.445l-1.155,2.071a7.369,7.369,0,0,0-3.586-1.2c-1.132,0-1.782.529-1.782,1.277v.046c0,.914,1.373,1.3,2.864,1.782,1.854.577,3.947,1.421,3.947,3.708v.046c0,2.674-2.071,4-4.719,4A8.932,8.932,0,0,1,111.641,562.9Z" transform="translate(-19.118 -518.12)" fill="#060707"/>
      <path id="Path_45" data-name="Path 45" d="M120.127,562.414v-6.693h-1.612v-2.5h1.612v-3.49h2.914v3.49h3.416v2.5h-3.416v6.234a1.387,1.387,0,0,0,1.564,1.589,3.926,3.926,0,0,0,1.806-.433v2.383a5.108,5.108,0,0,1-2.626.648C121.644,566.143,120.127,565.206,120.127,562.414Z" transform="translate(-14.18 -519.488)" fill="#060707"/>
      <path id="Path_46" data-name="Path 46" d="M64.867,568.67h2.914v1.974a4.573,4.573,0,0,1,3.971-2.239c2.864,0,4.524,1.926,4.524,4.885v8.088H73.366v-7.221c0-1.973-.988-3.1-2.72-3.1a2.827,2.827,0,0,0-2.864,3.153v7.172H64.867Z" transform="translate(-52.718 -506.072)" fill="#060707"/>
      <path id="Path_47" data-name="Path 47" d="M73.141,575.072v-.048a6.308,6.308,0,0,1,6.21-6.619c4.045,0,6.09,3.177,6.09,6.836,0,.265-.024.531-.048.82H76.054a3.546,3.546,0,0,0,3.658,3.225,4.609,4.609,0,0,0,3.442-1.517l1.71,1.517a6.428,6.428,0,0,1-5.2,2.382A6.341,6.341,0,0,1,73.141,575.072Zm9.411-.938c-.192-1.877-1.3-3.346-3.225-3.346-1.782,0-3.033,1.371-3.3,3.346Z" transform="translate(-46.775 -506.072)" fill="#060707"/>
      <path id="Path_48" data-name="Path 48" d="M83.029,579.212v-6.691H81.415v-2.5h1.614v-3.488h2.913v3.488h3.416v2.5H85.941v6.234a1.387,1.387,0,0,0,1.564,1.589,3.925,3.925,0,0,0,1.806-.433v2.382a5.09,5.09,0,0,1-2.624.649C84.544,582.943,83.029,582,83.029,579.212Z" transform="translate(-40.831 -507.42)" fill="#060707"/>
      <path id="Path_49" data-name="Path 49" d="M87.127,568.579H90.11l2.553,8.714,2.815-8.762h2.48l2.84,8.762,2.6-8.714h2.913l-4.165,12.805h-2.6l-2.84-8.69-2.864,8.69h-2.6Z" transform="translate(-36.728 -505.981)" fill="#060707"/>
      <path id="Path_50" data-name="Path 50" d="M99.041,575.1v-.047a6.777,6.777,0,0,1,13.551-.05v.05a6.644,6.644,0,0,1-6.812,6.617A6.572,6.572,0,0,1,99.041,575.1Zm10.64,0v-.047a3.93,3.93,0,0,0-3.9-4.093A3.816,3.816,0,0,0,101.952,575v.05a3.94,3.94,0,0,0,3.877,4.091A3.834,3.834,0,0,0,109.681,575.1Z" transform="translate(-28.169 -506.072)" fill="#060707"/>
      <path id="Path_51" data-name="Path 51" d="M108.645,568.662h2.913v2.865a4.5,4.5,0,0,1,4.5-3.105V571.5h-.168c-2.552,0-4.332,1.662-4.332,5.031v4.837h-2.913Z" transform="translate(-21.27 -506.064)" fill="#060707"/>
      <path id="Path_52" data-name="Path 52" d="M114.427,565.73h2.913v10.494l5.272-5.633h3.538l-5.054,5.174,5.222,7.535h-3.37l-3.828-5.487-1.78,1.852V583.3h-2.913Z" transform="translate(-17.117 -507.994)" fill="#060707"/>
    </g>
  </g>
</svg>
