<svg xmlns="http://www.w3.org/2000/svg" width="42.017" height="70.37" viewBox="0 0 42.017 70.37">
  <g id="tap" transform="translate(-89.686)">
    <path id="Path_1767" data-name="Path 1767" d="M158.109,107.039v20.742a17.777,17.777,0,0,1-.179,2.512,17.964,17.964,0,0,1-.533,2.461,24.8,24.8,0,0,0-.757,3.5,25.125,25.125,0,0,0-.254,3.568H131.971v-3.756a3.135,3.135,0,0,0-1.8-2.833,16.512,16.512,0,0,1-1.862-1.1,7.855,7.855,0,0,1-2.762-3.207l-4.1-8.748a4.209,4.209,0,0,1,.61-4.521l1.4-1.639a4.39,4.39,0,0,0,1.012-3.441,3.183,3.183,0,0,1,3.169-3.631,4.717,4.717,0,0,1,.474.022,5.242,5.242,0,0,1,1.693.436V86.146a3.661,3.661,0,0,1,7.322,0v16.719a3.66,3.66,0,1,1,7.32,0v2.524a3.661,3.661,0,0,1,7.322,0v1.72a3.218,3.218,0,0,1,3.119-3.24,3.169,3.169,0,0,1,3.22,3.169Z" transform="translate(-26.406 -69.448)" fill="#fcd09f"/>
    <rect id="Rectangle_634" data-name="Rectangle 634" width="2.055" height="7.721" transform="translate(106.034)" fill="#ffe800"/>
    <rect id="Rectangle_635" data-name="Rectangle 635" width="2.055" height="7.721" transform="translate(114.526 11.312) rotate(-135)" fill="#ffe800"/>
    <rect id="Rectangle_636" data-name="Rectangle 636" width="7.721" height="2.055" transform="translate(116.539 16.348)" fill="#ffe800"/>
    <rect id="Rectangle_637" data-name="Rectangle 637" width="7.721" height="2.055" transform="translate(89.686 16.172)" fill="#ffe800"/>
    <rect id="Rectangle_638" data-name="Rectangle 638" width="7.721" height="2.055" transform="translate(99.545 11.187) rotate(-135)" fill="#ffe800"/>
    <path id="Path_1768" data-name="Path 1768" d="M167.424,237.753V249.2a1.692,1.692,0,0,1-1.693-1.693V237.317A5.242,5.242,0,0,1,167.424,237.753Z" transform="translate(-64.024 -199.804)" fill="#e2b991"/>
  </g>
</svg>
