<svg xmlns="http://www.w3.org/2000/svg" width="26.224" height="22.399" viewBox="0 0 26.224 22.399"><defs><style>.a{fill:#fff;}</style></defs><g transform="translate(1 -5.113)"><g transform="translate(-1 5.113)"><path class="a" d="M8.049,7.215H18.538a1.465,1.465,0,0,1,1.42,1.2h6.228A7.051,7.051,0,0,0,19.467,3.5H7.12A7,7,0,0,0,.4,8.417H6.628A1.465,1.465,0,0,1,8.049,7.215Z" transform="translate(-0.181 -3.5)"/><path class="a" d="M1.475,15.975H5.026A1.469,1.469,0,0,0,6.5,14.5H0A1.5,1.5,0,0,0,1.475,15.975Z" transform="translate(0 -8.49)"/><path class="a" d="M37.575,15.975h3.551A1.469,1.469,0,0,0,42.6,14.5H36.1A1.5,1.5,0,0,0,37.575,15.975Z" transform="translate(-16.378 -8.49)"/><path class="a" d="M26.114,26.433l-2.4-6.774a1.643,1.643,0,0,0-1.53-1.093H19.449V17.2H16.991v1.366H9.233V17.2H6.774v1.366H4.043a1.591,1.591,0,0,0-1.53,1.093l-2.4,6.774A1.941,1.941,0,0,0,0,26.979V29.11a1.61,1.61,0,0,0,1.639,1.639H3.5v1.366H5.627V30.749H20.6v1.366h2.131V30.749h1.858a1.61,1.61,0,0,0,1.639-1.639V26.979A1.941,1.941,0,0,0,26.114,26.433ZM12.4,20.642h1.42l.055,1.093h-1.53Zm-.109,2.24h1.639l.109,1.53H12.183ZM9.779,27.908H7.485l.656-2.295h2.021Zm.656-3.5H8.577l.437-1.53h1.639Zm.437-2.677H9.342l.328-1.093h1.42Zm1.093,6.173.164-2.295H14.15l.164,2.295Zm3.169-7.266h1.42l.328,1.093h-1.53Zm.382,2.24h1.639l.437,1.53H15.734Zm.929,5.026-.382-2.295h1.967l.656,2.295Z" transform="translate(0 -9.715)"/></g></g></svg>