<svg xmlns="http://www.w3.org/2000/svg" width="204.293" height="70.037" viewBox="0 0 204.293 70.037">
  <g id="Text" transform="translate(0)">
    <path id="Path_1053" data-name="Path 1053" d="M146.267,342.7a7.073,7.073,0,0,1-3.315,5.441,8.586,8.586,0,0,1-4.115,1.231h-.263a8.051,8.051,0,0,1-4.073-.842l-.737-.316a9.22,9.22,0,0,1-4.21-7.283q-.6-5.673,3.252-8.546a9.081,9.081,0,0,1,4.084-1.631,10,10,0,0,1,3.841.389l-.632-5.989a2.3,2.3,0,0,1,3.778-1.915,1.831,1.831,0,0,1,.852,1.431l1.589,15.187A10.293,10.293,0,0,1,146.267,342.7Zm-5.178-6.315a3.262,3.262,0,0,0-1.726-1.252,8.358,8.358,0,0,0-2.1-.263,4.022,4.022,0,0,0-1.694.737q-1.8,1.389-1.431,4.852a5.978,5.978,0,0,0,2.41,4.368,7.87,7.87,0,0,0,1.81.442h.358a2.736,2.736,0,0,0,1.621-.568c1.168-.61,1.61-2.031,1.316-4.283l-.274-2.526a5.454,5.454,0,0,0-.284-1.495Z" transform="translate(-129.473 -305.581)" fill="#f5f5f5"/>
    <path id="Path_1054" data-name="Path 1054" d="M147.905,346.134l-2.3-21.744a2.2,2.2,0,0,1,1.052-2.1,3.565,3.565,0,0,1,1.052-.274,2.388,2.388,0,0,1,1.716.379,2.041,2.041,0,0,1,.873,1.494l.632,5.989a9.473,9.473,0,0,1,3.589-1.179,8.083,8.083,0,0,1,6.851,2.1,6.568,6.568,0,0,1,2.347,4.536l.958,9.062a1.873,1.873,0,0,1-.937,2.01,2.526,2.526,0,0,1-2.273.242,2.1,2.1,0,0,1-1.431-1.768l-.958-9.051q-.631-2.652-2.431-2.936a4.777,4.777,0,0,0-1.694-.063A3.042,3.042,0,0,0,152.2,334.4a5.978,5.978,0,0,0-.568,2.21l.958,9.062a2,2,0,0,1-1.442,2.221,2.6,2.6,0,0,1-2.515-.368A1.968,1.968,0,0,1,147.905,346.134Z" transform="translate(-128.628 -305.618)" fill="#f5f5f5"/>
    <path id="Path_1055" data-name="Path 1055" d="M165.594,327.225a2.705,2.705,0,0,1,1.821.442,2.041,2.041,0,0,1,.821,1.494l.958,8.977a3.347,3.347,0,0,0,.631,1.768,2.894,2.894,0,0,0,1.621,1.179,6.184,6.184,0,0,0,1.779.052,3.347,3.347,0,0,0,2.852-1.494l.221-.421a4.041,4.041,0,0,0,.242-1.863l-.947-8.978a2.021,2.021,0,0,1,1.053-2.021,2.22,2.22,0,0,1,2.273-.242,2.041,2.041,0,0,1,1.431,1.757l.947,8.978a7.683,7.683,0,0,1-4.673,7.672,9.535,9.535,0,0,1-2.926.789,8.124,8.124,0,0,1-6.862-2.1,7.544,7.544,0,0,1-.895-.937,7.272,7.272,0,0,1-1.442-3.6l-.958-8.977a2,2,0,0,1,1.052-2.105A1.937,1.937,0,0,1,165.594,327.225Z" transform="translate(-127.688 -305.412)" fill="#f5f5f5"/>
    <path id="Path_1056" data-name="Path 1056" d="M181.4,333.3a7.052,7.052,0,0,1,1.326-5,8.073,8.073,0,0,1,6.125-3.157q6.315-.116,8.325,4.294a13.044,13.044,0,0,1,.589,2.168l.947,8.988a1.884,1.884,0,0,1-1.116,1.947,2.537,2.537,0,0,1-.937.337,1.989,1.989,0,0,1-2.1-1.052,2.011,2.011,0,0,1-.263-.779l-.947-8.977q-.495-2.884-4.02-2.842c-1.979.211-3.094,1.179-3.315,2.9a3.356,3.356,0,0,0,0,.716l.958,8.977a1.916,1.916,0,0,1-1.21,1.968,1.632,1.632,0,0,1-.853.326,2.105,2.105,0,0,1-2.231-1.052,1.917,1.917,0,0,1-.263-.768Z" transform="translate(-126.752 -305.452)" fill="#f5f5f5"/>
    <path id="Path_1057" data-name="Path 1057" d="M212.866,340.677c-3.021-1.168-4.725-3.61-5.115-7.367l-1.61-15.187a1.673,1.673,0,0,1,.158-.979,2,2,0,0,1,1.884-1.473,2.294,2.294,0,0,1,1.737.537,1.789,1.789,0,0,1,.852,1.421l.631,5.915a16.7,16.7,0,0,1,3.589-1.179,7.937,7.937,0,0,1,5.262,1.273c2.4,1.442,3.768,3.82,4.126,7.125a9.789,9.789,0,0,1,0,1.916,8.419,8.419,0,0,1-3.157,6.63,8.177,8.177,0,0,1-3.894,1.684h-.347A7.905,7.905,0,0,1,212.866,340.677Zm-.232-6.315A3.084,3.084,0,0,0,216.276,337h.263a3.833,3.833,0,0,0,1.684-.81q1.873-1.463,1.516-4.862t-2.494-4.357a5.2,5.2,0,0,0-1.779-.431,4.366,4.366,0,0,0-1.873.684l-.505.284a2.81,2.81,0,0,0-.947,2.736l.274,2.6a12.11,12.11,0,0,0,.221,1.484Z" transform="translate(-125.453 -305.95)" fill="#f5f5f5"/>
    <path id="Path_1058" data-name="Path 1058" d="M240.688,338.076a2.494,2.494,0,0,1-3.926-.305,8.314,8.314,0,0,1-5.925.947,13.507,13.507,0,0,1-1.558-.547,7.535,7.535,0,0,1-4.21-4.578,10.209,10.209,0,0,1,.547-8.977,7.935,7.935,0,0,1,6.073-3.673,7.757,7.757,0,0,1,3.41.442,8.25,8.25,0,0,1,1.589.779,7.936,7.936,0,0,1,3.5,5.525l.852,8.041a3.526,3.526,0,0,1-.358,2.347Zm-9.651-12.629a2.642,2.642,0,0,0-1.884,2.263,8.42,8.42,0,0,0,.505,4.81,1.3,1.3,0,0,0,.242.61,2.968,2.968,0,0,0,2.631,1.473,5.337,5.337,0,0,0,1.652-.253q1.684-.821,1.673-3.441c-.2-2.421-.537-3.957-1.052-4.589a3.084,3.084,0,0,0-2.863-1.137,3.258,3.258,0,0,0-.905.295Z" transform="translate(-124.5 -305.674)" fill="#f5f5f5"/>
    <path id="Path_1059" data-name="Path 1059" d="M257.327,330.927a7.094,7.094,0,0,1-3.315,5.452,8.557,8.557,0,0,1-4.115,1.231h-.263a8.1,8.1,0,0,1-4.063-.842l-.747-.326a9.188,9.188,0,0,1-4.21-7.272c-.4-3.789.684-6.631,3.252-8.557a9.082,9.082,0,0,1,4.073-1.621,9.849,9.849,0,0,1,3.852.389l-.642-5.988a2.369,2.369,0,0,1,.084-.968,2.347,2.347,0,0,1,3.694-.947,1.8,1.8,0,0,1,.863,1.421l1.61,15.208a10.18,10.18,0,0,1-.074,2.821Zm-5.178-6.315a3.21,3.21,0,0,0-1.726-1.242,8.352,8.352,0,0,0-2.1-.263,4.053,4.053,0,0,0-1.684.737c-1.2.926-1.684,2.536-1.431,4.852a5.988,5.988,0,0,0,2.4,4.368,9.393,9.393,0,0,0,1.821.442h.347a2.7,2.7,0,0,0,1.621-.568q1.768-.894,1.316-4.284l-.263-2.515a5.512,5.512,0,0,0-.295-1.515Z" transform="translate(-123.648 -306.198)" fill="#f5f5f5"/>
    <path id="Path_1060" data-name="Path 1060" d="M274.017,334.546a2.1,2.1,0,0,1-1.684.81,2.189,2.189,0,0,1-2.242-1.116,8.282,8.282,0,0,1-5.915.947,12.863,12.863,0,0,1-1.558-.547,7.589,7.589,0,0,1-4.21-4.578,10.24,10.24,0,0,1,.558-8.978,8.072,8.072,0,0,1,9.472-3.241,9.209,9.209,0,0,1,1.579.789,7.873,7.873,0,0,1,3.5,5.525l.852,8.041A3.463,3.463,0,0,1,274.017,334.546Zm-9.651-12.629a2.652,2.652,0,0,0-1.884,2.263,8.5,8.5,0,0,0,.516,4.81,1.285,1.285,0,0,0,.232.61,2.989,2.989,0,0,0,2.642,1.474,5.384,5.384,0,0,0,1.652-.253q1.673-.821,1.673-3.441c-.2-2.421-.537-3.957-1.052-4.6a3.157,3.157,0,0,0-2.863-1.126,3.222,3.222,0,0,0-.947.295Z" transform="translate(-122.751 -305.859)" fill="#f5f5f5"/>
    <path id="Path_1061" data-name="Path 1061" d="M279.741,332.311a1.917,1.917,0,0,1-.084.8,2.2,2.2,0,0,1-1.979,1.41,3,3,0,0,1-.979-.053,1.905,1.905,0,0,1-1.505-1.673l-2.284-21.586a2.374,2.374,0,0,1,.074-.968,2.294,2.294,0,0,1,1.979-1.4,2.231,2.231,0,0,1,2.494,1.884Z" transform="translate(-121.951 -306.308)" fill="#f5f5f5"/>
    <path id="Path_1062" data-name="Path 1062" d="M291.773,306.451a2.431,2.431,0,0,1,1.726.453,1.99,1.99,0,0,1,.863,1.431l1.221,11.577,6.767-7.167a2.484,2.484,0,0,1,2.579-.674,2.733,2.733,0,0,1,.747.4,1.821,1.821,0,0,1,.684,2.231,7.351,7.351,0,0,1-.452.768l-4.936,5.146,7.367,7.367a1.757,1.757,0,0,1,.337,2.357,2.987,2.987,0,0,1-.547.61,2.294,2.294,0,0,1-2.62.358,1.588,1.588,0,0,1-.663-.411l-6.978-7.03-1.673,1.768.516,4.81a1.989,1.989,0,0,1-.947,1.926,2.41,2.41,0,0,1-2.368.253,1.989,1.989,0,0,1-1.326-1.694l-2.347-22.1a1.936,1.936,0,0,1,1.116-2.031A2.1,2.1,0,0,1,291.773,306.451Z" transform="translate(-121.069 -306.434)" fill="#f5f5f5"/>
    <path id="Path_1063" data-name="Path 1063" d="M320.538,324.884a2.547,2.547,0,0,1,2.326-.642,2.105,2.105,0,0,1,1.494,1.6,1.674,1.674,0,0,1-.674,1.979,7.6,7.6,0,0,1-2.926,1.663,23.617,23.617,0,0,1-4.357.621,7.9,7.9,0,0,1-4.431-.884,9.177,9.177,0,0,1-4.915-7.209,2.105,2.105,0,0,1-.095-.863c-.2-3.589.895-6.315,3.3-8.072a8.787,8.787,0,0,1,4.673-1.852,7.9,7.9,0,0,1,3.663.411c2.968,1.273,4.652,3.757,5.041,7.43l.084.789a2.131,2.131,0,0,1-2.063,2.284l-9.535,1.052a3.8,3.8,0,0,0,3.82,2.7l.789-.084a9.3,9.3,0,0,0,3.8-.926Zm-5.42-9.377h-.263a4.275,4.275,0,0,0-1.694.663,3.788,3.788,0,0,0-1.473,2.789l7.178-.768v-.158a3.157,3.157,0,0,0-3.547-2.568Z" transform="translate(-120.165 -306.186)" fill="#f5f5f5"/>
    <path id="Path_1064" data-name="Path 1064" d="M172.925,347.82a2.6,2.6,0,0,1,1.758.642,1.705,1.705,0,0,1,.61,1.505v5.462h2.9a2.347,2.347,0,0,1,2.1,1.105,1.7,1.7,0,0,1,0,2.1,2.189,2.189,0,0,1-2.1,1.053h-2.9v8.241a2.209,2.209,0,0,0,.432,1.589,1.338,1.338,0,0,0,.884.39,2.916,2.916,0,0,0,1.758-.074,2.473,2.473,0,0,1,2.463.558,1.9,1.9,0,0,1,.526,2.105,2.1,2.1,0,0,1-1.715,1.4l-1.673.232q-3.873.242-5.8-1.915a5.968,5.968,0,0,1-1.579-4.357v-8.272h-1.41a1.979,1.979,0,0,1-2.021-1.053,1.663,1.663,0,0,1,0-2.052,2.1,2.1,0,0,1,2.063-1.105h1.4V349.9a2.2,2.2,0,0,1,1.231-1.979A3.712,3.712,0,0,1,172.925,347.82Z" transform="translate(-127.515 -304.263)" fill="#f5f5f5"/>
    <path id="Path_1065" data-name="Path 1065" d="M193.85,356.274a9.093,9.093,0,0,1,3.947,8.083q0,5.778-3.968,8.157a9.641,9.641,0,0,1-4.926,1.252,9.536,9.536,0,0,1-5.452-1.589q-3.347-2.547-3.252-7.841,0-5.636,3.968-8A8.61,8.61,0,0,1,188.925,355a9.336,9.336,0,0,1,4.925,1.273ZM188.9,369.65q4.31,0,4.326-5.262c.011-3.5-1.431-5.147-4.315-5.147a4.137,4.137,0,0,0-2.2.621c-1.284.747-1.936,2.242-1.936,4.515v.316c-.011,3.284,1.368,4.957,4.126,4.957Z" transform="translate(-126.813 -303.886)" fill="#f5f5f5"/>
    <path id="Path_1066" data-name="Path 1066" d="M198.17,371.936V350.077A2.189,2.189,0,0,1,199.4,348.1a3.637,3.637,0,0,1,1.052-.158,2.368,2.368,0,0,1,1.673.558,2.105,2.105,0,0,1,.705,1.579v6.02a9.337,9.337,0,0,1,3.694-.789,8.1,8.1,0,0,1,6.6,2.789,6.61,6.61,0,0,1,1.842,4.757v9.1a1.863,1.863,0,0,1-1.137,1.9,2.515,2.515,0,0,1-2.294,0,2.031,2.031,0,0,1-1.231-1.9v-9.114c-.232-1.8-.926-2.852-2.1-3.157a4.539,4.539,0,0,0-1.673-.242,3.041,3.041,0,0,0-2.9,1.263,6.054,6.054,0,0,0-.789,2.1v9.114A2,2,0,0,1,201.149,374a2.6,2.6,0,0,1-2.463-.642A1.947,1.947,0,0,1,198.17,371.936Z" transform="translate(-125.87 -304.257)" fill="#f5f5f5"/>
    <path id="Path_1067" data-name="Path 1067" d="M239.96,368.341a7.083,7.083,0,0,1-3.884,5.062,8.643,8.643,0,0,1-4.21.789H231.6a7.979,7.979,0,0,1-3.957-1.274l-.705-.4a9.156,9.156,0,0,1-3.421-7.683c0-3.8,1.389-6.525,4.147-8.157a9.029,9.029,0,0,1,4.21-1.179,9.753,9.753,0,0,1,3.778.8v-6.02a2.357,2.357,0,0,1,.179-.958,2.168,2.168,0,0,1,2.1-1.263,2.106,2.106,0,0,1,1.673.716,1.821,1.821,0,0,1,.695,1.5v15.292A10.44,10.44,0,0,1,239.96,368.341Zm-4.483-6.82A3.22,3.22,0,0,0,233.9,360.1a7.888,7.888,0,0,0-2.031-.484,4.048,4.048,0,0,0-1.758.558c-1.284.789-1.937,2.347-1.937,4.662a5.936,5.936,0,0,0,1.926,4.6,7.881,7.881,0,0,0,1.758.642h.358a2.744,2.744,0,0,0,1.673-.4c1.231-.473,1.821-1.842,1.758-4.115v-2.536A5.722,5.722,0,0,0,235.477,361.521Z" transform="translate(-124.541 -304.25)" fill="#f5f5f5"/>
    <path id="Path_1068" data-name="Path 1068" d="M253.835,369.037a2.515,2.515,0,0,1,2.379-.389,2.1,2.1,0,0,1,1.316,1.737,1.684,1.684,0,0,1-.884,1.9,7.454,7.454,0,0,1-3.084,1.337,24.667,24.667,0,0,1-4.4.158,7.851,7.851,0,0,1-4.3-1.358,9.135,9.135,0,0,1-4.126-7.683,2.028,2.028,0,0,1,0-.873q.274-5.389,4.147-7.673a8.755,8.755,0,0,1,4.841-1.347,7.944,7.944,0,0,1,3.6.8c2.821,1.589,4.21,4.21,4.21,7.925v.789a2,2,0,0,1-.179.8,2.105,2.105,0,0,1-2.105,1.263h-9.588a3.778,3.778,0,0,0,3.515,3.094h.789A9.471,9.471,0,0,0,253.835,369.037Zm-4.4-9.9h-.263a3.882,3.882,0,0,0-1.757.463,3.841,3.841,0,0,0-1.768,2.62h7.22v-.158a3.157,3.157,0,0,0-3.252-2.936Z" transform="translate(-123.64 -303.894)" fill="#f5f5f5"/>
    <path id="Path_1069" data-name="Path 1069" d="M260.005,347.71a2.473,2.473,0,0,1,1.673.642,1.947,1.947,0,0,1,.705,1.5V361.5l7.493-6.4a2.5,2.5,0,0,1,2.631-.4,2.916,2.916,0,0,1,.705.484,1.831,1.831,0,0,1,.442,2.294c-.179.263-.358.505-.526.716l-5.483,4.557,6.588,8.083a1.768,1.768,0,0,1,.084,2.379,3.51,3.51,0,0,1-.621.558,2.305,2.305,0,0,1-2.642.074,1.663,1.663,0,0,1-.61-.484l-6.241-7.683-1.852,1.579v4.831a2,2,0,0,1-1.147,1.821,2.4,2.4,0,0,1-2.379,0,2,2,0,0,1-1.137-1.831V349.815a1.937,1.937,0,0,1,1.316-1.894A2.03,2.03,0,0,1,260.005,347.71Z" transform="translate(-122.748 -304.268)" fill="#f5f5f5"/>
    <path id="Path_1070" data-name="Path 1070" d="M274,372.036V350.177a2.189,2.189,0,0,1,1.231-1.979,3.7,3.7,0,0,1,1.053-.158,2.419,2.419,0,0,1,1.673.558,2.02,2.02,0,0,1,.705,1.579v6.02a9.135,9.135,0,0,1,3.694-.779,8.062,8.062,0,0,1,6.6,2.778,6.568,6.568,0,0,1,1.842,4.757v9.1a1.884,1.884,0,0,1-1.147,1.905,2.463,2.463,0,0,1-2.284,0,2.01,2.01,0,0,1-1.231-1.895v-9.125c-.232-1.8-.937-2.852-2.1-3.157a4.768,4.768,0,0,0-1.61-.211q-2.21,0-2.9,1.263a5.894,5.894,0,0,0-.8,2.1v9.114a2,2,0,0,1-1.673,2.052,2.631,2.631,0,0,1-2.463-.632A2.031,2.031,0,0,1,274,372.036Z" transform="translate(-121.892 -304.251)" fill="#f5f5f5"/>
    <path id="Path_1071" data-name="Path 1071" d="M304.79,356.414a9.167,9.167,0,0,1,3.947,8.093q0,5.778-3.978,8.146a10.188,10.188,0,0,1-10.377-.326c-2.221-1.694-3.3-4.3-3.241-7.851q0-5.62,3.968-7.988a8.683,8.683,0,0,1,4.757-1.347A9.525,9.525,0,0,1,304.79,356.414ZM299.844,369.8q4.3,0,4.315-5.262,0-5.146-4.3-5.157a4.208,4.208,0,0,0-2.2.631q-1.937,1.052-1.936,4.515v.316C295.708,368.127,297.086,369.8,299.844,369.8Z" transform="translate(-120.993 -303.879)" fill="#f5f5f5"/>
  </g>
</svg>
