<svg xmlns="http://www.w3.org/2000/svg" width="32.468" height="28.345" viewBox="0 0 32.468 28.345"><defs><style>.a{fill:#1d87cd;}</style></defs><g transform="translate(-51.693 -75.589) rotate(-30)"><g transform="translate(0 103.385)"><path class="a" d="M27.087,109.285a.8.8,0,0,0,.8-.8V104.19a.8.8,0,0,0-.8-.8H9.386v4.023a.8.8,0,1,1-1.609,0v-4.023H.8a.8.8,0,0,0-.8.8v4.291a.8.8,0,0,0,.8.8,2.414,2.414,0,0,1,0,4.827.8.8,0,0,0-.8.8v4.291a.8.8,0,0,0,.8.8H7.777V115.99a.8.8,0,1,1,1.609,0v4.023h17.7a.8.8,0,0,0,.8-.8v-4.291a.8.8,0,0,0-.8-.8,2.414,2.414,0,1,1,0-4.827Zm-17.7,3.486a.8.8,0,1,1-1.609,0v-2.145a.8.8,0,1,1,1.609,0Z" transform="translate(0 -103.385)"/></g></g></svg>